<?xml version="1.0" encoding="UTF-8"?>
<svg width="54px" height="58px" viewBox="0 0 54 58" version="1.1" xmlns="http://www.w3.org/2000/svg" xmlns:xlink="http://www.w3.org/1999/xlink">
    <!-- Generator: Sketch 52.5 (67469) - http://www.bohemiancoding.com/sketch -->
    <title>bed</title>
    <desc>Created with Sketch.</desc>
    <g id="Page-1" stroke="none" stroke-width="1" fill="none" fill-rule="evenodd">
        <g id="Artboard" transform="translate(-150.000000, -121.000000)" stroke="#FFFFFF">
            <g id="bed" transform="translate(150.000000, 121.000000)">
                <path d="M8.70588235,44.2941176 L11.0588235,38.8039216" id="Path" stroke-linecap="round"></path>
                <path d="M14.1960784,44.2941176 L16.5490196,38.8039216" id="Path" stroke-linecap="round"></path>
                <path d="M19.6862745,44.2941176 L22.0392157,38.8039216" id="Path" stroke-linecap="round"></path>
                <path d="M25.1764706,44.2941176 L27.5294118,38.8039216" id="Path" stroke-linecap="round"></path>
                <path d="M30.6666667,44.2941176 L33.0196078,38.8039216" id="Path" stroke-linecap="round"></path>
                <path d="M36.1568627,44.2941176 L38.5098039,38.8039216" id="Path" stroke-linecap="round"></path>
                <path d="M41.6470588,44.2941176 L44,38.8039216" id="Path" stroke-linecap="round"></path>
                <path d="M49.4901961,41.1098039 C49.4901961,39.8470588 48.4612512,38.8039216 47.2156863,38.8039216 L6.2745098,38.8039216 C5.02894491,38.8039216 4,39.8470588 4,41.1098039 L4,41.9882353 C4,43.2509804 5.02894491,44.2941176 6.2745098,44.2941176 L47.2156863,44.2941176 C48.4612512,44.2941176 49.4901961,43.2509804 49.4901961,41.9882353 L49.4901961,41.1098039 Z" id="Path" stroke-width="3" fill="#00FF40" stroke-linecap="round"></path>
                <polyline id="Path" stroke-width="3" stroke-linejoin="round" points="7.92156863 45.8627451 7.92156863 49 12.627451 49 12.627451 45.8627451"></polyline>
                <polyline id="Path" stroke-width="3" stroke-linejoin="round" points="40.8627451 45.8627451 40.8627451 49 45.5686275 49 45.5686275 45.8627451"></polyline>
                <path d="M26.745098,35.6666667 C26.745098,35.6666667 29.0980392,29.1729874 29.0980392,26.7777778 C29.0980392,24.2228876 24.3921569,20.5502329 24.3921569,17.8888889 C24.3921569,15.4936793 26.745098,9 26.745098,9" id="Path" stroke-width="3" stroke-linecap="round" stroke-linejoin="round"></path>
                <path d="M35.372549,35.6666667 C35.372549,35.6666667 37.7254902,29.1729874 37.7254902,26.7777778 C37.7254902,24.2228876 33.0196078,20.5502329 33.0196078,17.8888889 C33.0196078,15.4936793 35.372549,9 35.372549,9" id="Path" stroke-width="3" stroke-linecap="round" stroke-linejoin="round"></path>
                <path d="M18.1176471,35.6666667 C18.1176471,35.6666667 20.4705882,29.1729874 20.4705882,26.7777778 C20.4705882,24.2228876 15.7647059,20.5502329 15.7647059,17.8888889 C15.7647059,15.4936793 18.1176471,9 18.1176471,9" id="Path" stroke-width="3" stroke-linecap="round" stroke-linejoin="round"></path>
                <path d="M44,35.6666667 C44,35.6666667 46.3529412,29.1729874 46.3529412,26.7777778 C46.3529412,24.2228876 41.6470588,20.5502329 41.6470588,17.8888889 C41.6470588,15.4936793 44,9 44,9" id="Path" stroke-width="3" stroke-linecap="round" stroke-linejoin="round"></path>
                <path d="M9.49019608,35.6666667 C9.49019608,35.6666667 11.8431373,29.1729874 11.8431373,26.7777778 C11.8431373,24.2228876 7.1372549,20.5502329 7.1372549,17.8888889 C7.1372549,15.4936793 9.49019608,9 9.49019608,9" id="Path" stroke-width="3" stroke-linecap="round" stroke-linejoin="round"></path>
            </g>
        </g>
    </g>
</svg>