<?xml version="1.0" encoding="UTF-8" standalone="no"?>
<!-- Created with Inkscape (http://www.inkscape.org/) -->

<svg
   xmlns:dc="http://purl.org/dc/elements/1.1/"
   xmlns:cc="http://creativecommons.org/ns#"
   xmlns:rdf="http://www.w3.org/1999/02/22-rdf-syntax-ns#"
   xmlns:svg="http://www.w3.org/2000/svg"
   xmlns="http://www.w3.org/2000/svg"
   xmlns:sodipodi="http://sodipodi.sourceforge.net/DTD/sodipodi-0.dtd"
   xmlns:inkscape="http://www.inkscape.org/namespaces/inkscape"
   width="60.13768"
   height="60.776516"
   viewBox="0 0 60.137677 60.776516"
   id="svg4160"
   version="1.1"
   inkscape:version="0.92.3 (2405546, 2018-03-11)"
   sodipodi:docname="finish.svg">
  <defs
     id="defs4162" />
  <sodipodi:namedview
     id="base"
     pagecolor="#ffffff"
     bordercolor="#666666"
     borderopacity="1.0"
     inkscape:pageopacity="0.0"
     inkscape:pageshadow="2"
     inkscape:zoom="5.6"
     inkscape:cx="2.6901249"
     inkscape:cy="7.2709709"
     inkscape:document-units="px"
     inkscape:current-layer="layer2"
     showgrid="true"
     units="in"
     showguides="false"
     inkscape:window-width="1920"
     inkscape:window-height="1017"
     inkscape:window-x="-8"
     inkscape:window-y="-8"
     inkscape:window-maximized="1"
     inkscape:snap-bbox="true"
     inkscape:snap-global="false">
    <inkscape:grid
       type="xygrid"
       id="grid4712"
       originx="-9.9771178"
       originy="-29.820954" />
  </sodipodi:namedview>
  <metadata
     id="metadata4165">
    <rdf:RDF>
      <cc:Work
         rdf:about="">
        <dc:format>image/svg+xml</dc:format>
        <dc:type
           rdf:resource="http://purl.org/dc/dcmitype/StillImage" />
        <dc:title></dc:title>
      </cc:Work>
    </rdf:RDF>
  </metadata>
  <g
     inkscape:groupmode="layer"
     id="layer1"
     inkscape:label="Move 1" />
  <g
     inkscape:groupmode="layer"
     id="layer2"
     inkscape:label="Move"
     style="display:inline"
     transform="translate(-3.5328446,2.2636422)">
    <g
       id="g4576"
       transform="matrix(3.6826937,0,0,2.6567448,-4.7527218,1.2002806)"
       style="fill:#ffffff">
      <g
         id="g4520"
         style="fill:#ffffff">
        <path
           id="path4518"
           d="M 10.099,3.996 10.997,5.449 9.372,6.64 8.447,5.144 7.141,5.952 6.332,4.645 7.64,3.836 8.449,5.142 Z M 10.181,7.946 9.374,6.64 8.066,7.448 8.873,8.754 Z M 17.667,5.115 17.523,5.427 C 17.263,6.857 16.377,7.815 15.718,8.222 14.292,9.103 12.815,8.575 12.754,8.553 11.796,8.35 10.94,8.466 10.234,8.903 8.926,9.712 8.553,11.37 8.55,11.389 l -0.087,0.407 5.182,8.378 -0.839,0.521 L 3.577,5.775 C 3.4,5.845 3.193,5.787 3.089,5.619 2.971,5.428 3.03,5.18 3.22,5.062 L 3.914,4.634 C 4.102,4.516 4.352,4.575 4.47,4.766 4.568,4.925 4.537,5.12 4.414,5.251 L 4.663,5.655 4.669,5.642 C 5.211,4.327 5.901,3.404 6.719,2.9 8.203,1.983 9.559,2.746 9.616,2.779 c 1.16,0.676 1.986,0.458 2.474,0.156 0.209,-0.13 0.319,-0.256 0.319,-0.256 1.146,-1.005 1.607,-2.143 1.81,-2.559 0.202,-0.415 0.563,0.383 0.563,0.383 z m -3.618,-3.906 0.209,0.338 0.513,-0.4 -0.41,-0.662 c -0.084,0.167 -0.16,0.471 -0.312,0.724 z M 8.442,10.6 8.207,10.746 8.318,10.923 C 8.35,10.83 8.393,10.717 8.442,10.6 Z m 4.249,-2.412 -0.18,-0.291 -0.176,0.238 c 0.117,0.013 0.237,0.029 0.356,0.053 z M 13.958,7.312 13.251,6.17 14.684,5.16 13.875,3.854 12.444,4.866 11.605,3.511 c -0.168,0.04 -0.356,0.064 -0.563,0.062 L 10.1,3.997 9.582,3.163 C 9.534,3.136 9.487,3.112 9.438,3.084 9.422,3.075 9.297,3.005 9.092,2.937 L 7.639,3.836 7.158,3.061 C 7.075,3.1 6.99,3.147 6.904,3.2 6.569,3.407 6.259,3.697 5.97,4.06 L 6.331,4.646 5.184,5.354 C 5.132,5.465 5.081,5.575 5.031,5.693 L 5.738,6.819 7.14,5.952 8.066,7.447 6.675,8.308 7.492,9.608 8.873,8.754 9.224,9.319 C 9.451,9.055 9.721,8.805 10.049,8.601 10.181,8.521 10.318,8.454 10.457,8.391 L 10.181,7.945 11.813,6.769 10.997,5.449 12.442,4.866 13.249,6.171 11.814,6.769 12.483,7.85 Z M 17.147,4.951 17.126,4.917 16.624,5.373 15.926,4.247 16.452,3.838 15.581,2.444 15.117,2.94 14.259,1.55 13.502,2.018 c -0.133,0.176 -0.281,0.349 -0.438,0.519 l 0.812,1.315 1.243,-0.913 0.807,1.308 -1.241,0.912 0.707,1.142 -1.396,1.072 0.576,0.93 C 14.884,8.238 15.211,8.121 15.533,7.922 15.738,7.795 15.93,7.64 16.109,7.461 l -0.717,-1.159 1.232,-0.929 0.41,0.663 z"
           style="fill:#ffffff"
           inkscape:connector-curvature="0" />
      </g>
      <g
         id="g4522"
         style="fill:#ffffff" />
      <g
         id="g4524"
         style="fill:#ffffff" />
      <g
         id="g4526"
         style="fill:#ffffff" />
      <g
         id="g4528"
         style="fill:#ffffff" />
      <g
         id="g4530"
         style="fill:#ffffff" />
      <g
         id="g4532"
         style="fill:#ffffff" />
      <g
         id="g4534"
         style="fill:#ffffff" />
      <g
         id="g4536"
         style="fill:#ffffff" />
      <g
         id="g4538"
         style="fill:#ffffff" />
      <g
         id="g4540"
         style="fill:#ffffff" />
      <g
         id="g4542"
         style="fill:#ffffff" />
      <g
         id="g4544"
         style="fill:#ffffff" />
      <g
         id="g4546"
         style="fill:#ffffff" />
      <g
         id="g4548"
         style="fill:#ffffff" />
      <g
         id="g4550"
         style="fill:#ffffff" />
    </g>
  </g>
</svg>
