<?xml version="1.0" encoding="utf-8"?>
<!-- Generator: Adobe Illustrator 15.0.2, SVG Export Plug-In . SVG Version: 6.00 Build 0)  -->
<!DOCTYPE svg PUBLIC "-//W3C//DTD SVG 1.1//EN" "http://www.w3.org/Graphics/SVG/1.1/DTD/svg11.dtd">
<svg version="1.1" id="Layer_1" xmlns="http://www.w3.org/2000/svg" xmlns:xlink="http://www.w3.org/1999/xlink" x="0px" y="0px"
	 width="60.137px" height="60.777px" viewBox="0 0 60.137 60.777" enable-background="new 0 0 60.137 60.777" xml:space="preserve">
<g id="Layer_2_1_">
	<path fill="none" stroke="#FFFFFF" stroke-width="2.2536" stroke-miterlimit="10" d="M9.45,53.992c0,0-2.5-6.849-3.167-9.062
		c-0.669-2.214-0.734-2.577-1.014-4.597c-0.278-2.018-0.259-2.985-0.259-2.985s-0.215-4.389-0.157-5.866
		c0.06-1.481,0.688-5.511,1.065-6.621c0.376-1.11,1.752-3.667,2.622-4.959c0.87-1.291,2.389-2.954,3.322-3.895
		c0.936-0.94,4.129-3.389,5.142-4.102c1.012-0.715,3.73-2.136,5.322-2.778c1.59-0.643,4.829-1.351,4.829-1.351l2.673-0.389
		c0,0,2.688-0.306,5.115-0.13c2.526,0.312,3.789,0.598,3.789,0.598s2.224,0.567,3.87,1.221c1.646,0.653,1.566,0.589,3.142,1.428
		c2.221,1.232,3.121,1.954,4.568,3.143c1.993,1.812,3.297,3.946,3.297,3.946l0.936,1.661c0,0,0.596,1.292,0.908,2.415
		c0.312,1.122,0.312,1.122,0.442,2.519c0.131,1.396,0.077,2.908,0.077,2.908s-0.688-0.962-1.663-2.025
		c-0.972-1.065-2.18-1.902-3.504-2.856c-1.322-0.954-3.441-1.925-3.441-1.925s-2.304-1.12-3.802-1.477
		c-1.5-0.356-3.115-0.391-3.115-0.391l-2.855-0.077c0,0-2.162,0.11-3.597,0.52c-1.434,0.408-3.518,1.428-3.518,1.428
		s-1.26,0.695-2.363,1.533c-1.103,0.836-1.896,1.868-1.896,1.868l-1.116,1.662c0,0-0.539,1.057-0.676,2.024s-0.137,0.968-0.13,2.233
		s0.019,0.922,0.442,2.233c0.422,1.31,1.453,3.167,1.453,3.167l1.714,2.855l3.712,5.479l2.207,3.66l1.507,2.884
		c0,0,0.615,1.173,1.062,2.103c0.449,0.927,0.702,1.999,0.702,1.999H9.45V53.992z"/>
</g>
</svg>
