<?xml version="1.0" encoding="utf-8"?>
<!-- Generator: Adobe Illustrator 23.0.1, SVG Export Plug-In . SVG Version: 6.00 Build 0)  -->
<svg version="1.1"
	 id="svg4160" xmlns:cc="http://creativecommons.org/ns#" xmlns:dc="http://purl.org/dc/elements/1.1/" xmlns:inkscape="http://www.inkscape.org/namespaces/inkscape" xmlns:rdf="http://www.w3.org/1999/02/22-rdf-syntax-ns#" xmlns:sodipodi="http://sodipodi.sourceforge.net/DTD/sodipodi-0.dtd" xmlns:svg="http://www.w3.org/2000/svg"
	 xmlns="http://www.w3.org/2000/svg" xmlns:xlink="http://www.w3.org/1999/xlink" x="0px" y="0px" viewBox="0 0 60.1 60.8"
	 style="enable-background:new 0 0 60.1 60.8;" xml:space="preserve">
<style type="text/css">
	.st0{fill:none;}
	.st1{fill:none;stroke:#FF670F;stroke-width:2;stroke-linejoin:round;}
	.st2{fill:none;stroke:#FFFFFF;stroke-width:3;stroke-linejoin:round;}
	.st3{fill:#232323;}
</style>
<sodipodi:namedview  bordercolor="#666666" borderopacity="1.0" id="base" inkscape:current-layer="layer8" inkscape:cx="-133.6799" inkscape:cy="7.2709709" inkscape:document-units="px" inkscape:pageopacity="0.0" inkscape:pageshadow="2" inkscape:snap-bbox="true" inkscape:snap-global="false" inkscape:window-height="1800" inkscape:window-maximized="0" inkscape:window-width="3200" inkscape:window-x="0" inkscape:window-y="0" inkscape:zoom="5.6" pagecolor="#ffffff" showgrid="true" showguides="false" units="in">
	<inkscape:grid  id="grid4712" originx="-9.9771178" originy="-29.820954" type="xygrid"></inkscape:grid>
</sodipodi:namedview>
<g id="layer8" transform="translate(-3.5328446,2.2636422)" inkscape:groupmode="layer" inkscape:label="Extruct">
	<g id="g65" transform="translate(-7.3590375,-17.659017)">
		<path id="path4720" inkscape:connector-curvature="0" class="st0" d="M23.7,70.1l-5.9-6.6l5.9-0.1c3.2,0,8.5,0,11.7,0l5.8,0.1
			l-5.7,6.6c-3.1,3.6-5.7,6.6-5.8,6.6C29.6,76.7,26.9,73.7,23.7,70.1z"/>
		<path id="path4722" inkscape:connector-curvature="0" class="st0" d="M7.5,51.8v-8h21.4h21.4v8v8H28.9H7.5V51.8z"/>
		<path id="path4710-2" inkscape:connector-curvature="0" sodipodi:nodetypes="ccc" class="st1" d="M18.1,62.8l4.2,5.9l4-5.9
			L18.1,62.8z"/>
		
			<path id="path4178-3" sodipodi:argument="-18.248306" sodipodi:cx="-30" sodipodi:cy="39" sodipodi:expansion="1" sodipodi:radius="15.811388" sodipodi:revolution="3.1031001" sodipodi:t0="0" sodipodi:type="spiral" class="st2" d="
			M50.5,37c-0.7-0.5-1,0.7-0.8,1.2c0.6,1.2,2.3,1.1,3.1,0.3c1.6-1.3,1.3-3.8-0.1-5.1c-2-2-5.3-1.5-7.1,0.6c-2.4,2.7-1.7,6.8,1,9
			c3.3,2.8,8.3,1.9,11-1.4c3.2-4,2.1-9.9-1.9-12.9c-4.6-3.6-11.4-2.3-14.9,2.3c-4,5.3-2.5,12.9,2.7,16.8c5.9,4.4,14.5,2.7,18.8-3.2
			c4.8-6.6,2.9-16-3.6-20.7c-7.3-5.2-17.6-3.1-22.7,4C34,31,32.9,34.7,33,38.5"/>
		<circle id="path4173" class="st3" cx="39.3" cy="46" r="19.4"/>
		
			<path id="path4178" sodipodi:argument="-18.248306" sodipodi:cx="-30" sodipodi:cy="39" sodipodi:expansion="1" sodipodi:radius="15.811388" sodipodi:revolution="3.1031001" sodipodi:t0="0" sodipodi:type="spiral" class="st2" d="
			M39.4,47.2c-0.7-0.5-1,0.7-0.8,1.2c0.6,1.2,2.3,1.1,3.1,0.3c1.6-1.3,1.3-3.8-0.1-5.1c-2-2-5.3-1.5-7.1,0.6c-2.4,2.7-1.7,6.8,1,9
			c3.3,2.8,8.3,1.9,11-1.4c3.2-4,2.1-9.9-1.9-12.9c-4.6-3.6-11.4-2.3-14.9,2.3c-4,5.3-2.5,12.9,2.7,16.8c5.9,4.4,14.5,2.7,18.8-3.2
			c4.8-6.6,2.9-16-3.6-20.7c-7.3-5.2-17.6-3.1-22.7,4c-2.2,3.1-3.3,6.8-3.2,10.5"/>
		<path id="path4180" inkscape:connector-curvature="0" class="st2" d="M21.9,48.3v11.1"/>
	</g>
</g>
</svg>
