<?xml version="1.0" encoding="utf-8"?>
<!-- Generator: Adobe Illustrator 15.0.2, SVG Export Plug-In . SVG Version: 6.00 Build 0)  -->
<!DOCTYPE svg PUBLIC "-//W3C//DTD SVG 1.1//EN" "http://www.w3.org/Graphics/SVG/1.1/DTD/svg11.dtd">
<svg version="1.1" id="Layer_1" xmlns="http://www.w3.org/2000/svg" xmlns:xlink="http://www.w3.org/1999/xlink" x="0px" y="0px"
	 width="60.137px" height="60.777px" viewBox="0 0 60.137 60.777" enable-background="new 0 0 60.137 60.777" xml:space="preserve">
<g id="Extruder">
	<polygon id="Outline" fill="none" stroke="#FCFAFA" stroke-width="3.0024" stroke-miterlimit="10" points="58.434,52.675 
		51.789,58.921 7.244,58.921 1,52.675 1,7.799 7.244,1.488 51.789,1.488 58.434,7.799 	"/>
	
		<circle id="Bearing" fill="none" stroke="#FCFAFA" stroke-width="3.0024" stroke-miterlimit="10" cx="43.72" cy="29.699" r="6.523"/>
	<g id="Gear">
		<path fill="#FCFAFA" d="M11.273,20.863c0.629,0.449,1.245,0.94,1.855,1.451c0.596-0.161,1.076-0.333,1.681-0.436
			c0.287-0.048,0.689-0.023,0.846-0.112c0.285-0.162,0.475-0.727,0.646-1.019c0.222-0.375,0.396-0.693,0.584-1.033
			c1.066-0.008,2.047,0.312,3.017,0.671c0.077,0.805,0.024,1.57,0.079,2.369c0.67,0.468,1.354,0.876,1.949,1.61
			c0.797-0.052,1.641-0.282,2.436-0.334c0.638,0.831,1.06,1.892,1.312,2.731c-0.537,0.514-1.188,0.996-1.764,1.501
			c0.023,0.911,0.132,1.85-0.048,2.71c0.275,0.27,0.575,0.493,0.881,0.776c0.273,0.256,0.758,0.58,0.859,0.843
			c0.146,0.363-0.323,1.077-0.473,1.404c-0.243,0.507-0.479,0.917-0.735,1.334c-0.817-0.074-1.584-0.343-2.396-0.44
			c-0.634,0.567-1.201,1.153-2.108,1.646c-0.164,0.818-0.076,1.704-0.264,2.515c-1.008,0.415-1.945,0.573-2.856,0.629
			c-0.404-0.724-0.719-1.419-1.128-2.139c-0.893-0.178-1.804-0.292-2.642-0.677c-0.74,0.462-1.402,0.941-2.08,1.418
			c-0.386-0.213-0.757-0.486-1.174-0.824c-0.327-0.264-0.963-0.65-1.082-1.038c-0.082-0.264,0.328-0.909,0.449-1.173
			c0.206-0.447,0.379-0.771,0.513-1.15c-0.487-0.812-0.951-1.617-1.075-2.33c-0.771-0.386-1.618-0.485-2.398-0.814
			c-0.194-1.07-0.137-2.076,0.063-3.043c0.375-0.074,0.767-0.141,1.152-0.235c0.371-0.092,0.907-0.155,1.145-0.339
			c0.182-0.14,0.282-0.643,0.422-0.941c0.26-0.561,0.429-0.947,0.893-1.428c-0.393-0.762-0.749-1.515-0.966-2.229
			C9.448,22.052,10.278,21.436,11.273,20.863z"/>
		<circle fill="#020000" cx="16.15" cy="29.555" r="3.732"/>
	</g>
	<g id="Filament_path">
		<rect id="Path" x="27.319" y="1.488" fill="#FFFDFD" width="7.09" height="57.433"/>
	</g>
	<g id="circle_index" transform="translate(62.000000, 173.000000)" display="none">
		<circle id="Oval_1_" display="inline" fill="#FFFFFF" cx="-14.458" cy="-160.406" r="13.594"/>
		
			<text transform="matrix(1 0 0 1 -19.2341 -154.5803)" display="inline" fill="#010101" font-family="'ArialMT'" font-size="16.8307">1</text>
	</g>
</g>
</svg>
