<?xml version="1.0" encoding="utf-8"?>
<!-- Generator: Adobe Illustrator 15.0.2, SVG Export Plug-In . SVG Version: 6.00 Build 0)  -->
<!DOCTYPE svg PUBLIC "-//W3C//DTD SVG 1.1//EN" "http://www.w3.org/Graphics/SVG/1.1/DTD/svg11.dtd">
<svg version="1.1"
	 id="svg4160" sodipodi:docname="filament.svg" inkscape:version="0.92.2 5c3e80d, 2017-08-06" xmlns:inkscape="http://www.inkscape.org/namespaces/inkscape" xmlns:sodipodi="http://sodipodi.sourceforge.net/DTD/sodipodi-0.dtd" xmlns:rdf="http://www.w3.org/1999/02/22-rdf-syntax-ns#" xmlns:dc="http://purl.org/dc/elements/1.1/" xmlns:svg="http://www.w3.org/2000/svg" xmlns:cc="http://creativecommons.org/ns#"
	 xmlns="http://www.w3.org/2000/svg" xmlns:xlink="http://www.w3.org/1999/xlink" x="0px" y="0px" width="60.137px"
	 height="60.777px" viewBox="0 0 60.137 60.777" enable-background="new 0 0 60.137 60.777" xml:space="preserve">
<sodipodi:namedview  showgrid="true" inkscape:window-maximized="0" units="in" inkscape:zoom="5.6" inkscape:window-y="0" pagecolor="#ffffff" inkscape:document-units="px" showguides="false" id="base" inkscape:window-x="0" bordercolor="#666666" inkscape:window-width="3200" inkscape:cy="7.2709709" inkscape:pageshadow="2" inkscape:cx="-133.6799" borderopacity="1.0" inkscape:window-height="1800" inkscape:current-layer="layer8" inkscape:snap-global="false" inkscape:pageopacity="0.0" inkscape:snap-bbox="true">
	<inkscape:grid  type="xygrid" originy="-29.820954" originx="-9.9771178" id="grid4712"></inkscape:grid>
</sodipodi:namedview>
<g id="layer8" transform="translate(-3.5328446,2.2636422)" inkscape:groupmode="layer" inkscape:label="Extruct">
	<g id="g65" transform="translate(-7.3590375,-17.659017)">
		<path id="path4720" inkscape:connector-curvature="0" fill="none" d="M28.812,68.728l-5.32-5.938l5.286-0.048
			c2.907-0.025,7.654-0.025,10.548,0l5.263,0.048l-5.129,5.927c-2.82,3.26-5.173,5.932-5.228,5.938
			C34.177,74.661,31.739,71.994,28.812,68.728z"/>
		<path id="path4722" inkscape:connector-curvature="0" fill="none" d="M14.242,52.254v-7.232h19.286h19.286v7.232v7.232H33.528
			H14.242V52.254z"/>
		
			<path id="path4710-2" inkscape:connector-curvature="0" sodipodi:nodetypes="ccc" fill="none" stroke="#FFFFFF" stroke-width="2" stroke-linejoin="round" d="
			M23.753,62.147l3.757,5.27l3.638-5.27H23.753z"/>
		
			<path id="path4178-3" sodipodi:radius="15.811388" sodipodi:argument="-18.248306" sodipodi:expansion="1" sodipodi:type="spiral" sodipodi:cx="-30" sodipodi:cy="39" sodipodi:t0="0" sodipodi:revolution="3.1031001" fill="none" stroke="#FFFFFF" stroke-width="3" stroke-linejoin="round" d="
			M52.994,38.961c-0.647-0.411-0.873,0.67-0.683,1.076c0.516,1.1,2.04,0.954,2.833,0.289c1.421-1.189,1.127-3.388-0.104-4.592
			c-1.805-1.766-4.756-1.308-6.35,0.497c-2.123,2.405-1.493,6.132,0.891,8.108c2.999,2.485,7.512,1.682,9.865-1.283
			c2.852-3.591,1.871-8.893-1.676-11.624c-4.181-3.218-10.275-2.061-13.383,2.069c-3.586,4.769-2.252,11.659,2.463,15.14
			c5.357,3.956,13.043,2.443,16.898-2.855c4.325-5.945,2.635-14.427-3.249-18.656c-6.532-4.695-15.812-2.827-20.414,3.642
			c-1.957,2.75-2.956,6.121-2.851,9.491"/>
		<circle id="path4173" fill="#232323" cx="42.845" cy="47.053" r="17.5"/>
		
			<path id="path4178" sodipodi:radius="15.811388" sodipodi:argument="-18.248306" sodipodi:expansion="1" sodipodi:type="spiral" sodipodi:cx="-30" sodipodi:cy="39" sodipodi:t0="0" sodipodi:revolution="3.1031001" fill="none" stroke="#FFFFFF" stroke-width="3" stroke-linejoin="round" d="
			M42.936,48.125c-0.647-0.41-0.872,0.67-0.683,1.076c0.516,1.1,2.04,0.954,2.834,0.289c1.42-1.189,1.126-3.388-0.104-4.591
			c-1.806-1.767-4.757-1.308-6.35,0.497c-2.124,2.405-1.494,6.132,0.89,8.108c2.999,2.485,7.512,1.682,9.866-1.283
			c2.851-3.592,1.871-8.894-1.677-11.625c-4.181-3.218-10.275-2.061-13.382,2.069c-3.586,4.77-2.252,11.659,2.463,15.14
			c5.357,3.956,13.043,2.443,16.898-2.855c4.325-5.944,2.635-14.427-3.249-18.656c-6.531-4.695-15.812-2.827-20.414,3.642
			c-1.956,2.75-2.956,6.121-2.851,9.491"/>
		<path id="path4180" inkscape:connector-curvature="0" fill="none" stroke="#FFFFFF" stroke-width="3" stroke-linejoin="round" d="
			M27.192,49.098v10"/>
	</g>
</g>
</svg>
