<?xml version="1.0" encoding="utf-8"?>
<!-- Generator: Adobe Illustrator 15.0.2, SVG Export Plug-In . SVG Version: 6.00 Build 0)  -->
<!DOCTYPE svg PUBLIC "-//W3C//DTD SVG 1.1//EN" "http://www.w3.org/Graphics/SVG/1.1/DTD/svg11.dtd">
<svg version="1.1" id="Layer_1" xmlns="http://www.w3.org/2000/svg" xmlns:xlink="http://www.w3.org/1999/xlink" x="0px" y="0px"
	 width="60.137px" height="60.777px" viewBox="0 0 60.137 60.777" enable-background="new 0 0 60.137 60.777" xml:space="preserve">
<g id="Extruder">
	<polygon id="Outline" fill="none" stroke="#FCFAFA" stroke-width="3.0024" stroke-miterlimit="10" points="52.184,51.391 
		46.562,56.676 8.875,56.676 3.592,51.391 3.592,13.424 8.875,8.084 46.562,8.084 52.184,13.424 	"/>
	
		<circle id="Bearing" fill="none" stroke="#FCFAFA" stroke-width="3.0024" stroke-miterlimit="10" cx="39.736" cy="31.952" r="5.519"/>
	<g id="Gear">
		<path fill="#FCFAFA" d="M12.283,24.476c0.53,0.379,1.053,0.796,1.567,1.229c0.504-0.136,0.91-0.283,1.422-0.369
			c0.243-0.04,0.583-0.021,0.718-0.096c0.239-0.137,0.399-0.614,0.546-0.861c0.188-0.315,0.336-0.587,0.495-0.874
			c0.9-0.007,1.729,0.265,2.552,0.568c0.062,0.68,0.021,1.328,0.065,2.004c0.567,0.396,1.146,0.741,1.649,1.362
			c0.674-0.044,1.388-0.238,2.06-0.283c0.54,0.703,0.897,1.601,1.11,2.311c-0.454,0.437-1.004,0.846-1.492,1.271
			c0.021,0.771,0.112,1.563-0.04,2.293c0.234,0.229,0.487,0.418,0.745,0.657c0.232,0.217,0.643,0.491,0.729,0.713
			c0.124,0.308-0.275,0.911-0.4,1.188c-0.206,0.431-0.405,0.776-0.622,1.129c-0.692-0.062-1.341-0.287-2.028-0.372
			c-0.535,0.479-1.016,0.978-1.781,1.394c-0.141,0.692-0.065,1.441-0.226,2.128c-0.853,0.352-1.645,0.484-2.416,0.531
			c-0.343-0.612-0.606-1.2-0.955-1.812c-0.755-0.148-1.524-0.246-2.233-0.569c-0.626,0.391-1.188,0.796-1.762,1.197
			c-0.325-0.181-0.641-0.409-0.991-0.695c-0.276-0.225-0.814-0.554-0.915-0.879c-0.069-0.226,0.275-0.771,0.38-0.991
			c0.174-0.379,0.318-0.653,0.434-0.978c-0.412-0.687-0.804-1.366-0.909-1.971c-0.65-0.325-1.367-0.41-2.027-0.688
			c-0.164-0.904-0.115-1.757,0.054-2.573c0.317-0.063,0.649-0.12,0.975-0.199c0.314-0.078,0.771-0.131,0.971-0.288
			c0.151-0.119,0.236-0.544,0.354-0.797c0.221-0.474,0.363-0.802,0.755-1.208c-0.332-0.646-0.633-1.281-0.815-1.886
			C10.74,25.483,11.441,24.962,12.283,24.476z"/>
		<path fill="#020000" d="M16.41,28.673c1.74,0,3.155,1.413,3.155,3.155c0,1.746-1.415,3.16-3.155,3.16
			c-1.745,0-3.159-1.414-3.159-3.16C13.251,30.086,14.665,28.673,16.41,28.673z"/>
	</g>
	<g id="Filament_path">
		<rect id="Path" x="25.212" y="8.084" fill="#FFFDFD" width="6.874" height="48.591"/>
		<rect id="Entry" x="21.134" y="3.477" display="none" fill="#FCFCFC" width="15.032" height="4.605"/>
		<rect id="Exit" x="21.134" y="56.676" display="none" fill="#FCFCFC" width="15.032" height="4.607"/>
	</g>
</g>
<g id="Circle">
	<g id="circle_index" transform="translate(62.000000, 173.000000)">
		<circle id="Oval_1_" fill="#FFFFFF" cx="-15.458" cy="-159.406" r="13.594"/>
		<text transform="matrix(1 0 0 1 -20.2341 -153.5803)" fill="#010101" font-family="'ArialMT'" font-size="16.8307">4</text>
	</g>
</g>
</svg>
