<?xml version="1.0" encoding="utf-8"?>
<!-- Generator: Adobe Illustrator 15.0.2, SVG Export Plug-In . SVG Version: 6.00 Build 0)  -->
<!DOCTYPE svg PUBLIC "-//W3C//DTD SVG 1.1//EN" "http://www.w3.org/Graphics/SVG/1.1/DTD/svg11.dtd">
<svg version="1.1" id="Layer_1" xmlns="http://www.w3.org/2000/svg" xmlns:xlink="http://www.w3.org/1999/xlink" x="0px" y="0px"
	 width="67.068px" height="74.389px" viewBox="0 0 67.068 74.389" enable-background="new 0 0 67.068 74.389" xml:space="preserve">
<g id="Layer_1_1_">
	<g id="Hex_fill">
		
			<line fill="none" stroke="#FFFFFF" stroke-width="0.5616" stroke-miterlimit="10" x1="17.331" y1="8.091" x2="14.612" y2="12.701"/>
		<polygon fill="none" stroke="#FFFFFF" stroke-width="0.5616" stroke-miterlimit="10" points="9.322,21.932 8.651,20.77 
			10.659,16.591 13.331,12.717 13.334,12.717 14.642,12.717 17.304,17.324 14.642,21.932 		"/>
		<polygon fill="none" stroke="#FFFFFF" stroke-width="0.5616" stroke-miterlimit="10" points="9.322,31.148 6.662,26.539 
			9.322,21.934 14.642,21.934 17.304,26.539 14.642,31.148 		"/>
		<polygon fill="none" stroke="#FFFFFF" stroke-width="0.5616" stroke-miterlimit="10" points="9.322,40.365 6.662,35.757 
			9.322,31.15 14.642,31.15 17.304,35.757 14.642,40.365 		"/>
		<polygon fill="none" stroke="#FFFFFF" stroke-width="0.5616" stroke-miterlimit="10" points="9.322,40.367 8.651,41.529 
			10.659,45.707 13.331,49.582 13.334,49.582 14.642,49.582 17.304,44.974 14.642,40.367 		"/>
		
			<line fill="none" stroke="#FFFFFF" stroke-width="0.5616" stroke-miterlimit="10" x1="14.595" y1="49.576" x2="17.315" y2="54.185"/>
		<line fill="none" stroke="#FFFFFF" stroke-width="0.5616" stroke-miterlimit="10" x1="17.293" y1="8.1" x2="22.636" y2="8.1"/>
		
			<line fill="none" stroke="#FFFFFF" stroke-width="0.5616" stroke-miterlimit="10" x1="17.293" y1="17.32" x2="22.636" y2="17.32"/>
		
			<line fill="none" stroke="#FFFFFF" stroke-width="0.5616" stroke-miterlimit="10" x1="17.293" y1="26.54" x2="22.636" y2="26.54"/>
		
			<line fill="none" stroke="#FFFFFF" stroke-width="0.5616" stroke-miterlimit="10" x1="17.293" y1="35.76" x2="22.636" y2="35.76"/>
		
			<line fill="none" stroke="#FFFFFF" stroke-width="0.5616" stroke-miterlimit="10" x1="17.293" y1="44.98" x2="22.636" y2="44.98"/>
		<line fill="none" stroke="#FFFFFF" stroke-width="0.5616" stroke-miterlimit="10" x1="17.293" y1="54.2" x2="22.636" y2="54.2"/>
		<polygon fill="none" stroke="#FFFFFF" stroke-width="0.5616" stroke-miterlimit="10" points="25.322,12.715 22.662,8.105 
			25.322,3.5 30.642,3.5 33.304,8.105 30.642,12.715 		"/>
		<polygon fill="none" stroke="#FFFFFF" stroke-width="0.5616" stroke-miterlimit="10" points="25.322,21.932 22.662,17.324 
			25.322,12.717 30.642,12.717 33.304,17.324 30.642,21.932 		"/>
		<polygon fill="none" stroke="#FFFFFF" stroke-width="0.5616" stroke-miterlimit="10" points="25.322,31.148 22.662,26.539 
			25.322,21.934 30.642,21.934 33.304,26.539 30.642,31.148 		"/>
		<polygon fill="none" stroke="#FFFFFF" stroke-width="0.5616" stroke-miterlimit="10" points="25.322,40.365 22.662,35.757 
			25.322,31.15 30.642,31.15 33.304,35.757 30.642,40.365 		"/>
		<polygon fill="none" stroke="#FFFFFF" stroke-width="0.5616" stroke-miterlimit="10" points="25.322,49.582 22.662,44.972 
			25.322,40.367 30.642,40.367 33.304,44.972 30.642,49.582 		"/>
		<polygon fill="none" stroke="#FFFFFF" stroke-width="0.5616" stroke-miterlimit="10" points="25.322,58.798 22.662,54.191 
			25.322,49.583 30.642,49.583 33.304,54.191 30.642,58.798 		"/>
		<line fill="none" stroke="#FFFFFF" stroke-width="0.5616" stroke-miterlimit="10" x1="33.293" y1="8.1" x2="38.636" y2="8.1"/>
		
			<line fill="none" stroke="#FFFFFF" stroke-width="0.5616" stroke-miterlimit="10" x1="33.293" y1="17.32" x2="38.636" y2="17.32"/>
		
			<line fill="none" stroke="#FFFFFF" stroke-width="0.5616" stroke-miterlimit="10" x1="33.293" y1="26.54" x2="38.636" y2="26.54"/>
		
			<line fill="none" stroke="#FFFFFF" stroke-width="0.5616" stroke-miterlimit="10" x1="33.293" y1="35.76" x2="38.636" y2="35.76"/>
		
			<line fill="none" stroke="#FFFFFF" stroke-width="0.5616" stroke-miterlimit="10" x1="33.293" y1="44.98" x2="38.636" y2="44.98"/>
		<line fill="none" stroke="#FFFFFF" stroke-width="0.5616" stroke-miterlimit="10" x1="33.293" y1="54.2" x2="38.636" y2="54.2"/>
		<polygon fill="none" stroke="#FFFFFF" stroke-width="0.5616" stroke-miterlimit="10" points="41.323,12.715 38.663,8.105 
			41.323,3.5 46.642,3.5 49.304,8.105 46.642,12.715 		"/>
		<polygon fill="none" stroke="#FFFFFF" stroke-width="0.5616" stroke-miterlimit="10" points="41.323,21.932 38.663,17.324 
			41.323,12.717 46.642,12.717 49.304,17.324 46.642,21.932 		"/>
		<polygon fill="none" stroke="#FFFFFF" stroke-width="0.5616" stroke-miterlimit="10" points="41.323,31.148 38.663,26.539 
			41.323,21.934 46.642,21.934 49.304,26.539 46.642,31.148 		"/>
		<polygon fill="none" stroke="#FFFFFF" stroke-width="0.5616" stroke-miterlimit="10" points="41.323,40.365 38.663,35.757 
			41.323,31.15 46.642,31.15 49.304,35.757 46.642,40.365 		"/>
		<polygon fill="none" stroke="#FFFFFF" stroke-width="0.5616" stroke-miterlimit="10" points="41.323,49.582 38.663,44.972 
			41.323,40.367 46.642,40.367 49.304,44.972 46.642,49.582 		"/>
		<polygon fill="none" stroke="#FFFFFF" stroke-width="0.5616" stroke-miterlimit="10" points="41.323,58.798 38.663,54.191 
			41.323,49.583 46.642,49.583 49.304,54.191 46.642,58.798 		"/>
		<line fill="none" stroke="#FFFFFF" stroke-width="0.5616" stroke-miterlimit="10" x1="49.294" y1="8.1" x2="54.636" y2="8.1"/>
		
			<line fill="none" stroke="#FFFFFF" stroke-width="0.5616" stroke-miterlimit="10" x1="49.294" y1="17.32" x2="54.636" y2="17.32"/>
		
			<line fill="none" stroke="#FFFFFF" stroke-width="0.5616" stroke-miterlimit="10" x1="49.294" y1="26.54" x2="54.636" y2="26.54"/>
		
			<line fill="none" stroke="#FFFFFF" stroke-width="0.5616" stroke-miterlimit="10" x1="49.294" y1="35.76" x2="54.636" y2="35.76"/>
		
			<line fill="none" stroke="#FFFFFF" stroke-width="0.5616" stroke-miterlimit="10" x1="49.294" y1="44.98" x2="54.636" y2="44.98"/>
		<line fill="none" stroke="#FFFFFF" stroke-width="0.5616" stroke-miterlimit="10" x1="49.294" y1="54.2" x2="54.636" y2="54.2"/>
		
			<line fill="none" stroke="#FFFFFF" stroke-width="0.5616" stroke-miterlimit="10" x1="54.595" y1="8.076" x2="57.331" y2="12.716"/>
		<polygon fill="none" stroke="#FFFFFF" stroke-width="0.5616" stroke-miterlimit="10" points="62.645,21.932 63.317,20.77 
			61.308,16.592 58.636,12.717 58.635,12.717 57.325,12.717 54.663,17.324 57.325,21.932 		"/>
		<polygon fill="none" stroke="#FFFFFF" stroke-width="0.5616" stroke-miterlimit="10" points="57.323,31.148 54.663,26.539 
			57.323,21.934 62.642,21.934 65.304,26.539 62.642,31.148 		"/>
		<polygon fill="none" stroke="#FFFFFF" stroke-width="0.5616" stroke-miterlimit="10" points="57.323,40.365 54.663,35.757 
			57.323,31.15 62.642,31.15 65.304,35.757 62.642,40.365 		"/>
		<polygon fill="none" stroke="#FFFFFF" stroke-width="0.5616" stroke-miterlimit="10" points="62.645,40.367 63.317,41.529 
			61.308,45.707 58.636,49.582 58.635,49.582 57.325,49.582 54.663,44.974 57.325,40.367 		"/>
		
			<line fill="none" stroke="#FFFFFF" stroke-width="0.5616" stroke-miterlimit="10" x1="57.315" y1="49.56" x2="54.595" y2="54.185"/>
	</g>
	<g id="Rings">
		
			<circle id="Outter_ring" fill="none" stroke="#FFFFFF" stroke-width="3.0024" stroke-miterlimit="10" cx="35.95" cy="31.187" r="29.188"/>
		<circle id="Inner_ring" stroke="#FFFFFF" stroke-width="3.0024" stroke-miterlimit="10" cx="35.95" cy="31.187" r="13.625"/>
	</g>
</g>
<g id="fillament_unload">
	<polygon fill="none" stroke="#FFFFFF" stroke-width="3.0024" stroke-linejoin="round" points="12.15,64.387 6.762,55.056 
		1.375,64.387 	"/>
	
		<line fill="none" stroke="#FFFFFF" stroke-width="3.0024" stroke-linejoin="round" x1="6.762" y1="31.763" x2="6.762" y2="55.116"/>
</g>
</svg>
