<?xml version="1.0" encoding="utf-8"?>
<!-- Generator: Adobe Illustrator 15.0.2, SVG Export Plug-In . SVG Version: 6.00 Build 0)  -->
<!DOCTYPE svg PUBLIC "-//W3C//DTD SVG 1.1//EN" "http://www.w3.org/Graphics/SVG/1.1/DTD/svg11.dtd">
<svg version="1.1" id="Layer_1" xmlns="http://www.w3.org/2000/svg" xmlns:xlink="http://www.w3.org/1999/xlink" x="0px" y="0px"
	 width="68px" height="68px" viewBox="0 0 68 68" enable-background="new 0 0 68 68" xml:space="preserve">
<g id="Layer_1_1_">
	<g id="DocumentOutline">
		<path id="Path" fill="none" stroke="#FFFFFF" stroke-width="3" stroke-linejoin="round" d="M40.034,4.386H16.327
			C14.664,4.386,13,5.911,13,7.575v53.514C13,62.752,14.664,64,16.327,64h35.976c1.664,0,2.981-1.248,2.981-2.911V19.586"/>
		<path id="Path_1_" fill="none" stroke="#FFFFFF" stroke-width="3" stroke-linecap="round" stroke-linejoin="round" d="
			M53.775,20.328c1.596,0,2.012-0.832,0.832-2.01L41.23,5.009C40.121,3.9,39.081,4.316,39.081,5.91v11.646
			c0,1.594,1.456,2.773,3.119,2.773L53.775,20.328L53.775,20.328z"/>
	</g>
	<g id="MockContent">
		<path id="Path_2_" fill="none" stroke="#FFFFFF" stroke-width="0.5" stroke-linecap="round" stroke-linejoin="round" d="
			M19.239,12.705h16.636"/>
		<path id="Path_3_" fill="none" stroke="#FFFFFF" stroke-width="0.5" stroke-linecap="round" stroke-linejoin="round" d="
			M18.545,24.489h13.864"/>
		<path id="Path_4_" fill="none" stroke="#FFFFFF" stroke-width="0.5" stroke-linecap="round" stroke-linejoin="round" d="
			M36.568,24.489h13.17"/>
		<path id="Path_5_" fill="none" stroke="#FFFFFF" stroke-width="0.5" stroke-linecap="round" stroke-linejoin="round" d="
			M18.545,28.648H39.34"/>
		<path id="Path_6_" fill="none" stroke="#FFFFFF" stroke-width="0.5" stroke-linecap="round" stroke-linejoin="round" d="
			M43.5,28.648h6.238"/>
		<path id="Path_7_" fill="none" stroke="#FFFFFF" stroke-width="0.5" stroke-linecap="round" stroke-linejoin="round" d="
			M18.545,32.807h13.864"/>
		<path id="Path_8_" fill="none" stroke="#FFFFFF" stroke-width="0.5" stroke-linecap="round" stroke-linejoin="round" d="
			M36.568,32.807h13.17"/>
		<path id="Path_9_" fill="none" stroke="#FFFFFF" stroke-width="0.5" stroke-linecap="round" stroke-linejoin="round" d="
			M18.545,36.966H39.34"/>
		<path id="Path_10_" fill="none" stroke="#FFFFFF" stroke-width="0.5" stroke-linecap="round" stroke-linejoin="round" d="
			M43.5,36.966h6.238"/>
	</g>
	<g id="_x2E_gcode" enable-background="new    ">
		<path fill="#FFFFFF" d="M17.914,52.341c0,0.222-0.084,0.411-0.252,0.57c-0.168,0.158-0.366,0.235-0.598,0.235
			c-0.261,0-0.474-0.077-0.643-0.235c-0.168-0.159-0.251-0.349-0.251-0.57c0-0.221,0.083-0.412,0.251-0.575
			c0.168-0.165,0.382-0.245,0.643-0.245c0.231,0,0.43,0.08,0.598,0.245C17.83,51.929,17.914,52.12,17.914,52.341z"/>
		<path fill="#FFFFFF" d="M20.09,55.928c-0.126-0.124-0.199-0.26-0.224-0.403c-0.023-0.144-0.004-0.269,0.058-0.374
			c0.062-0.106,0.161-0.185,0.296-0.238c0.135-0.053,0.292-0.049,0.475,0.007c0.126,0.068,0.231,0.128,0.317,0.182
			c0.086,0.052,0.173,0.102,0.261,0.145c0.086,0.042,0.174,0.078,0.266,0.107c0.091,0.028,0.198,0.059,0.323,0.085
			c0.173,0.039,0.36,0.059,0.562,0.059c0.202,0,0.401-0.023,0.598-0.071c0.197-0.049,0.38-0.124,0.548-0.23
			c0.168-0.105,0.3-0.245,0.396-0.417c0.067-0.116,0.105-0.256,0.115-0.418c0.009-0.163,0.015-0.312,0.015-0.446v-0.937
			c-0.153,0.076-0.308,0.139-0.461,0.188c-0.153,0.048-0.312,0.097-0.476,0.144c-0.23,0.048-0.462,0.08-0.692,0.095
			c-0.23,0.014-0.462-0.003-0.691-0.051c-0.5-0.087-0.918-0.289-1.254-0.605c-0.336-0.315-0.588-0.693-0.756-1.124
			c-0.168-0.432-0.255-0.893-0.259-1.383c-0.005-0.49,0.073-0.951,0.238-1.384c0.134-0.346,0.331-0.662,0.59-0.951
			c0.261-0.287,0.553-0.514,0.879-0.684c0.327-0.167,0.678-0.267,1.053-0.296c0.375-0.03,0.739,0.039,1.095,0.202
			c0.278,0.133,0.543,0.283,0.792,0.446c0.058-0.134,0.14-0.232,0.245-0.295s0.216-0.087,0.331-0.072
			c0.115,0.016,0.224,0.066,0.324,0.152c0.102,0.086,0.176,0.212,0.224,0.373v6.139c0,0.519-0.077,0.964-0.231,1.334
			c-0.152,0.368-0.452,0.697-0.893,0.985c-0.183,0.115-0.379,0.217-0.591,0.304c-0.212,0.086-0.424,0.139-0.634,0.157
			c-0.461,0.059-0.903,0.039-1.326-0.056c-0.308-0.068-0.566-0.158-0.778-0.268S20.368,56.083,20.09,55.928z M23.994,51.636
			c0.038-0.021,0.072-0.027,0.101-0.027v-2.596c-0.009,0-0.015-0.004-0.015-0.015c-0.191-0.182-0.41-0.354-0.655-0.518
			c-0.245-0.165-0.503-0.284-0.771-0.36c-0.115,0.01-0.231,0.021-0.346,0.028c-0.115,0.01-0.23,0.021-0.347,0.029
			c-0.077,0.037-0.156,0.077-0.238,0.115c-0.081,0.038-0.16,0.076-0.238,0.114c-0.48,0.492-0.743,0.99-0.785,1.501
			c-0.044,0.508,0.075,1.07,0.353,1.686c0.049,0.058,0.101,0.115,0.159,0.172c0.058,0.059,0.11,0.115,0.159,0.173
			C22.294,52.399,23.168,52.298,23.994,51.636z"/>
		<path fill="#FFFFFF" d="M30.362,51.534c0.164-0.134,0.324-0.196,0.483-0.187c0.159,0.009,0.286,0.062,0.382,0.159
			c0.096,0.095,0.148,0.223,0.159,0.381c0.01,0.158-0.054,0.319-0.188,0.484c-0.316,0.344-0.689,0.591-1.117,0.734
			s-0.85,0.185-1.269,0.121c-0.417-0.062-0.805-0.227-1.16-0.497c-0.355-0.269-0.62-0.635-0.792-1.095
			c-0.106-0.261-0.184-0.533-0.23-0.821c-0.049-0.289-0.063-0.571-0.044-0.851c0.029-0.46,0.137-0.924,0.324-1.39
			c0.188-0.465,0.441-0.872,0.764-1.218s0.7-0.6,1.139-0.757c0.438-0.159,0.914-0.157,1.434,0.008
			c0.261,0.087,0.495,0.192,0.707,0.315c0.211,0.125,0.412,0.283,0.604,0.477c0.105,0.153,0.159,0.303,0.159,0.446
			c0,0.145-0.042,0.264-0.123,0.354c-0.081,0.092-0.191,0.152-0.33,0.181c-0.14,0.027-0.296,0-0.469-0.087
			c-0.315-0.316-0.624-0.505-0.922-0.568s-0.574-0.036-0.829,0.079c-0.255,0.114-0.479,0.3-0.678,0.553
			c-0.196,0.256-0.349,0.544-0.454,0.864c-0.105,0.323-0.159,0.658-0.159,1.009c0,0.353,0.067,0.676,0.201,0.974
			c0.115,0.269,0.272,0.476,0.469,0.62c0.196,0.144,0.406,0.228,0.627,0.252c0.221,0.025,0.449-0.01,0.684-0.101
			S30.18,51.736,30.362,51.534z"/>
		<path fill="#FFFFFF" d="M32.408,49.56c0.106-0.308,0.236-0.606,0.39-0.899c0.152-0.293,0.335-0.559,0.547-0.8
			c0.211-0.24,0.454-0.446,0.728-0.619c0.273-0.172,0.579-0.298,0.916-0.374c0.557-0.124,1.044-0.081,1.462,0.129
			c0.417,0.21,0.75,0.515,1.002,0.907c0.249,0.395,0.414,0.844,0.496,1.348c0.081,0.506,0.061,0.987-0.065,1.447
			c-0.144,0.567-0.398,1.097-0.764,1.586c-0.363,0.491-0.827,0.845-1.384,1.067c-0.412,0.163-0.809,0.222-1.188,0.18
			c-0.38-0.043-0.72-0.166-1.023-0.367c-0.303-0.201-0.561-0.467-0.771-0.792c-0.212-0.326-0.355-0.696-0.433-1.109
			c-0.049-0.26-0.064-0.515-0.05-0.764c0.014-0.251,0.046-0.5,0.094-0.748L32.408,49.56z M33.532,49.893
			c-0.039,0.201-0.066,0.386-0.079,0.554c-0.016,0.167-0.007,0.358,0.021,0.569c0.028,0.258,0.11,0.491,0.245,0.698
			s0.298,0.364,0.49,0.474c0.191,0.112,0.405,0.165,0.641,0.16c0.236-0.005,0.473-0.079,0.714-0.224
			c0.315-0.192,0.569-0.441,0.755-0.749c0.187-0.307,0.331-0.638,0.425-0.993c0.076-0.288,0.095-0.595,0.052-0.923
			c-0.043-0.326-0.142-0.613-0.297-0.865c-0.152-0.249-0.359-0.429-0.619-0.54c-0.26-0.109-0.566-0.093-0.921,0.051
			c-0.385,0.164-0.688,0.409-0.909,0.734C33.83,49.167,33.657,49.518,33.532,49.893z"/>
		<path fill="#FFFFFF" d="M44.727,52.067c0.126,0.172,0.176,0.34,0.153,0.498c-0.023,0.159-0.088,0.283-0.188,0.374
			c-0.102,0.092-0.229,0.135-0.389,0.13c-0.16-0.004-0.313-0.084-0.468-0.238c-0.049-0.048-0.092-0.099-0.129-0.151
			c-0.039-0.054-0.068-0.104-0.088-0.15c-0.287,0.249-0.622,0.443-1,0.583c-0.38,0.138-0.764,0.209-1.153,0.209
			c-0.389,0-0.761-0.078-1.116-0.237c-0.356-0.159-0.654-0.406-0.895-0.743c-0.181-0.259-0.313-0.551-0.396-0.872
			s-0.122-0.647-0.122-0.98c0-0.332,0.04-0.656,0.122-0.98c0.08-0.32,0.185-0.622,0.312-0.899c0.114-0.25,0.28-0.475,0.496-0.677
			s0.445-0.365,0.686-0.49c0.22-0.124,0.467-0.229,0.741-0.311c0.276-0.083,0.536-0.127,0.787-0.137c0.23,0,0.459,0.005,0.692,0.015
			c0.229,0.011,0.455,0.049,0.677,0.116c-0.01-0.691-0.018-1.275-0.022-1.75c-0.005-0.476-0.007-0.795-0.007-0.959
			c0.038-0.182,0.112-0.321,0.222-0.417c0.111-0.097,0.225-0.146,0.348-0.151c0.12-0.004,0.236,0.035,0.353,0.122
			c0.115,0.086,0.203,0.22,0.26,0.404v7.535c0.02,0.029,0.04,0.056,0.064,0.079C44.687,52.013,44.708,52.04,44.727,52.067z
			 M43.46,51.031v-0.202c0-0.357,0-0.746,0-1.175c0-0.426-0.007-0.833-0.016-1.218l-0.085-0.042c-0.029-0.02-0.057-0.038-0.08-0.059
			s-0.051-0.038-0.08-0.058c-0.287-0.086-0.591-0.124-0.907-0.115c-0.315,0.009-0.615,0.069-0.893,0.18
			c-0.278,0.109-0.525,0.271-0.742,0.482c-0.216,0.213-0.366,0.48-0.454,0.807c-0.077,0.299-0.105,0.557-0.086,0.779
			c0.019,0.222,0.048,0.479,0.086,0.777c0.038,0.076,0.074,0.153,0.108,0.231c0.033,0.075,0.069,0.152,0.107,0.229l0.29,0.29
			c0.115,0.037,0.225,0.085,0.33,0.144c0.384,0.037,0.736,0.019,1.06-0.059c0.321-0.076,0.632-0.244,0.929-0.503
			c0.011-0.02,0.03-0.047,0.065-0.079c0.035-0.034,0.071-0.071,0.109-0.109c0.037-0.037,0.072-0.073,0.107-0.107
			c0.034-0.034,0.057-0.057,0.065-0.065L43.46,51.031z"/>
		<path fill="#FFFFFF" d="M51.195,51.405c0.202-0.075,0.375-0.087,0.52-0.028c0.144,0.059,0.247,0.148,0.31,0.274
			c0.064,0.123,0.072,0.263,0.029,0.416c-0.043,0.154-0.157,0.283-0.339,0.39c-0.317,0.183-0.658,0.351-1.022,0.504
			c-0.366,0.153-0.736,0.259-1.109,0.316c-0.375,0.059-0.746,0.056-1.109-0.008c-0.366-0.062-0.717-0.21-1.054-0.439
			c-0.403-0.278-0.71-0.655-0.922-1.13c-0.211-0.476-0.32-0.971-0.331-1.484c-0.011-0.515,0.084-1.009,0.28-1.484
			c0.198-0.475,0.506-0.856,0.93-1.146c0.442-0.298,0.924-0.521,1.442-0.67s1.042-0.166,1.57-0.049
			c0.259,0.056,0.494,0.179,0.704,0.366s0.382,0.404,0.512,0.646c0.129,0.245,0.2,0.504,0.209,0.779
			c0.01,0.274-0.058,0.531-0.202,0.771c-0.163,0.27-0.398,0.499-0.705,0.685c-0.308,0.187-0.642,0.347-1.001,0.476
			c-0.359,0.13-0.721,0.238-1.08,0.324s-0.676,0.169-0.943,0.245c-0.117,0.029-0.227,0.033-0.333,0.016
			c0.146,0.308,0.359,0.559,0.643,0.755c0.283,0.197,0.637,0.28,1.059,0.254c0.337-0.021,0.677-0.115,1.017-0.281
			C50.607,51.734,50.917,51.568,51.195,51.405z M48.386,48.336c-0.355,0.183-0.62,0.44-0.792,0.771s-0.259,0.68-0.259,1.044
			c0.067-0.048,0.139-0.086,0.215-0.115c0.174-0.05,0.349-0.099,0.527-0.152c0.178-0.052,0.358-0.102,0.54-0.151
			c0.115-0.028,0.271-0.07,0.469-0.13c0.196-0.056,0.4-0.123,0.611-0.2s0.404-0.167,0.577-0.267
			c0.173-0.102,0.288-0.214,0.347-0.338c0.018-0.317-0.059-0.534-0.231-0.649c-0.172-0.114-0.38-0.172-0.62-0.172
			s-0.49,0.04-0.748,0.122C48.761,48.18,48.55,48.26,48.386,48.336z"/>
	</g>
</g>
</svg>
