<?xml version="1.0" encoding="utf-8"?>
<!-- Generator: Adobe Illustrator 15.0.2, SVG Export Plug-In . SVG Version: 6.00 Build 0)  -->
<!DOCTYPE svg PUBLIC "-//W3C//DTD SVG 1.1//EN" "http://www.w3.org/Graphics/SVG/1.1/DTD/svg11.dtd">
<svg version="1.1" id="Layer_1" xmlns="http://www.w3.org/2000/svg" xmlns:xlink="http://www.w3.org/1999/xlink" x="0px" y="0px"
	 width="52px" height="60px" viewBox="0 0 52 60" enable-background="new 0 0 52 60" xml:space="preserve">
<g id="Layer_2">
	<g>
		<g>
			
				<line fill="none" stroke="#FFFFFF" stroke-width="2.1541" stroke-miterlimit="10" x1="10.636" y1="9.796" x2="41.363" y2="9.796"/>
			
				<rect x="11.266" y="0.8" fill="none" stroke="#FFFFFF" stroke-width="1.4078" stroke-linecap="round" stroke-linejoin="round" stroke-miterlimit="10" width="29.47" height="4.562"/>
			
				<rect x="18.146" y="5.362" fill="none" stroke="#FFFFFF" stroke-width="1.3595" stroke-miterlimit="10" width="15.706" height="4.338"/>
		</g>
		<g>
			
				<line fill="none" stroke="#FFFFFF" stroke-width="2.3503" stroke-miterlimit="10" x1="7.709" y1="14.497" x2="44.291" y2="14.497"/>
			
				<rect x="17.496" y="9.7" fill="none" stroke="#FFFFFF" stroke-width="1.3879" stroke-miterlimit="10" width="17.009" height="4.797"/>
		</g>
		<g>
			
				<line fill="none" stroke="#FFFFFF" stroke-width="2.3503" stroke-miterlimit="10" x1="7.709" y1="19.294" x2="44.291" y2="19.294"/>
			
				<rect x="17.002" y="14.497" fill="none" stroke="#FFFFFF" stroke-width="1.3879" stroke-miterlimit="10" width="17.997" height="4.796"/>
		</g>
		<g>
			
				<line fill="none" stroke="#FFFFFF" stroke-width="2.3503" stroke-miterlimit="10" x1="7.709" y1="24.088" x2="44.291" y2="24.088"/>
			
				<rect x="16.516" y="19.294" fill="none" stroke="#FFFFFF" stroke-width="1.3879" stroke-miterlimit="10" width="18.968" height="4.732"/>
		</g>
		<g>
			
				<line fill="none" stroke="#FFFFFF" stroke-width="2.3503" stroke-miterlimit="10" x1="7.709" y1="28.822" x2="44.291" y2="28.822"/>
			
				<rect x="16.015" y="24.026" fill="none" stroke="#FFFFFF" stroke-width="1.3879" stroke-miterlimit="10" width="19.969" height="4.795"/>
		</g>
		<g>
			
				<line fill="none" stroke="#FFFFFF" stroke-width="2.3503" stroke-miterlimit="10" x1="7.709" y1="33.619" x2="44.291" y2="33.619"/>
			<g>
				
					<line fill="none" stroke="#FFFFFF" stroke-width="1.4109" stroke-linejoin="round" stroke-miterlimit="10" x1="23.155" y1="38.145" x2="23.155" y2="34.159"/>
				
					<line fill="none" stroke="#FFFFFF" stroke-width="1.4109" stroke-linejoin="round" stroke-miterlimit="10" x1="28.85" y1="38.145" x2="28.85" y2="34.159"/>
				<path fill="none" stroke="#FFFFFF" stroke-width="1.4109" stroke-linejoin="round" stroke-miterlimit="10" d="M10.637,46.762"/>
				<g>
					
						<line fill="none" stroke="#FFFFFF" stroke-width="1.4109" stroke-linejoin="round" stroke-miterlimit="10" x1="25.229" y1="58.863" x2="26.755" y2="58.863"/>
					<path fill="none" stroke="#FFFFFF" stroke-width="1.4109" stroke-linejoin="round" stroke-miterlimit="10" d="M26.758,58.863
						c0.12,0,0.23-0.059,0.299-0.155"/>
					<path fill="none" stroke="#FFFFFF" stroke-width="1.4109" stroke-linejoin="round" stroke-miterlimit="10" d="M24.949,58.708
						c0.066,0.094,0.178,0.155,0.298,0.155"/>
					
						<line fill="none" stroke="#FFFFFF" stroke-width="1.4109" stroke-linejoin="round" stroke-miterlimit="10" x1="24.946" y1="58.708" x2="22.343" y2="54.973"/>
					
						<line fill="none" stroke="#FFFFFF" stroke-width="1.4109" stroke-linejoin="round" stroke-miterlimit="10" x1="27.062" y1="58.708" x2="29.662" y2="54.973"/>
					
						<rect x="18.278" y="49.191" fill="none" stroke="#FFFFFF" stroke-width="1.4109" stroke-linejoin="round" stroke-miterlimit="10" width="15.533" height="5.771"/>
					
						<rect x="22.097" y="49.191" fill="none" stroke="#FFFFFF" stroke-width="1.4109" stroke-linejoin="round" stroke-miterlimit="10" width="7.801" height="5.771"/>
				</g>
				
					<rect x="10.635" y="38.145" fill="none" stroke="#FFFFFF" stroke-width="1.4109" stroke-linejoin="round" stroke-miterlimit="10" width="30.731" height="11.049"/>
			</g>
			
				<rect x="15.528" y="28.822" fill="none" stroke="#FFFFFF" stroke-width="1.3879" stroke-miterlimit="10" width="20.945" height="4.797"/>
		</g>
	</g>
</g>
<g id="circle_index" transform="translate(62.000000, 173.000000)">
	<circle id="Oval_1_" fill="#FFFFFF" cx="-23.596" cy="-159.406" r="13.594"/>
	<text transform="matrix(1 0 0 1 -28.3721 -153.5801)" fill="#010101" font-family="'ArialMT'" font-size="16.8307">4</text>
</g>
</svg>
