<?xml version="1.0" encoding="utf-8"?>
<!-- Generator: Adobe Illustrator 15.0.2, SVG Export Plug-In . SVG Version: 6.00 Build 0)  -->
<!DOCTYPE svg PUBLIC "-//W3C//DTD SVG 1.1//EN" "http://www.w3.org/Graphics/SVG/1.1/DTD/svg11.dtd">
<svg version="1.1"
	 id="Layer1" xmlns:dc="http://purl.org/dc/elements/1.1/" xmlns:rdf="http://www.w3.org/1999/02/22-rdf-syntax-ns#" xmlns:cc="http://creativecommons.org/ns#" sodipodi:docname="move-z+.svg" xmlns:inkscape="http://www.inkscape.org/namespaces/inkscape" xmlns:svg="http://www.w3.org/2000/svg" xmlns:sodipodi="http://sodipodi.sourceforge.net/DTD/sodipodi-0.dtd" inkscape:version="0.92.2 5c3e80d, 2017-08-06"
	 xmlns="http://www.w3.org/2000/svg" xmlns:xlink="http://www.w3.org/1999/xlink" x="0px" y="0px" width="60.137px"
	 height="60.777px" viewBox="0 0 60.137 60.777" enable-background="new 0 0 60.137 60.777" xml:space="preserve">
<rect id="bed" x="4.119" y="52.986" fill="none" stroke="#FFFFFF" stroke-width="3" stroke-linecap="round" stroke-linejoin="round" width="51.899" height="5.828"/>
<g id="Extruder">
	<g id="Layer_right">
		<path fill="none" stroke="#FFFFFF" stroke-width="1.7437" stroke-linejoin="round" stroke-miterlimit="10" d="M21.581,32.402
			h4.247c0.616,0,1.158,0.541,1.158,1.158c0,0.615-0.542,1.155-1.158,1.155h-9.65"/>
		
			<polyline fill="none" stroke="#FFFFFF" stroke-width="1.7451" stroke-linecap="round" stroke-linejoin="round" stroke-miterlimit="10" points="
			15.792,37.034 21.196,37.034 17.722,41.279 15.522,41.279 13.857,39.251 		"/>
		<path fill="none" stroke="#FFFFFF" stroke-width="1.7437" stroke-linejoin="round" stroke-miterlimit="10" d="M24.67,32.402
			V20.629c0-0.733-0.619-1.351-1.353-1.351H13.089"/>
		<g>
			<path fill="none" stroke="#FFFFFF" stroke-width="1.7437" stroke-linejoin="round" stroke-miterlimit="10" d="M16.534,18.122
				c0,0,0-0.541,0-1.16c0-0.616,0.693-1.157,1.544-1.157h2.7c0.851,0,1.546-0.694,1.546-1.544v-3.088"/>
		</g>
		
			<line fill="none" stroke="#FFFFFF" stroke-width="1.7437" stroke-linecap="round" stroke-linejoin="round" stroke-miterlimit="10" x1="24.67" y1="32.402" x2="20.423" y2="32.402"/>
	</g>
	<g id="Layer_left">
		<path fill="none" stroke="#FFFFFF" stroke-width="1.7437" stroke-linejoin="round" stroke-miterlimit="10" d="M17.057,34.717
			H7.407c-0.618,0-1.158-0.54-1.158-1.155c0-0.617,0.54-1.158,1.158-1.158h4.245"/>
		
			<polyline fill="none" stroke="#FFFFFF" stroke-width="1.7451" stroke-linecap="round" stroke-linejoin="round" stroke-miterlimit="10" points="
			19.34,39.292 17.712,41.279 15.512,41.279 12.038,37.034 17.442,37.034 		"/>
		<path fill="none" stroke="#FFFFFF" stroke-width="1.7437" stroke-linejoin="round" stroke-miterlimit="10" d="M20.144,19.278
			H9.916c-0.734,0-1.353,0.617-1.353,1.351v11.773"/>
		
			<line fill="none" stroke="#FFFFFF" stroke-width="1.7437" stroke-linecap="round" stroke-linejoin="round" stroke-miterlimit="10" x1="12.811" y1="32.402" x2="8.565" y2="32.402"/>
	</g>
</g>
<path id="Arrow_1_" fill="#232323" stroke="#FFFFFF" stroke-width="2.1251" stroke-linejoin="round" d="M57.137,28.602L44.681,41.19
	L32.095,28.734l4.982-5.035l4.032,3.991V13h7.084l-0.001,14.573l3.911-3.952L57.137,28.602z"/>
</svg>
