<?xml version="1.0" encoding="UTF-8"?>
<svg width="54px" height="46px" viewBox="0 0 54 46" version="1.1" xmlns="http://www.w3.org/2000/svg" xmlns:xlink="http://www.w3.org/1999/xlink">
    <!-- Generator: Sketch 52.5 (67469) - http://www.bohemiancoding.com/sketch -->
    <title>network</title>
    <desc>Created with Sketch.</desc>
    <g id="a" stroke="none" stroke-width="1" fill="none" fill-rule="evenodd">
        <g id="Artboard" transform="translate(-2111.000000, -2295.000000)">
            <g id="wifi-(1)" transform="translate(2111.000000, 2295.000000)">
                <path d="M27.4545455,43 C25.0488538,43 23.0909091,41.0423958 23.0909091,38.6356049 C23.0909091,36.2303315 25.0488538,34.2727273 27.4545455,34.2727273 C29.8602372,34.2727273 31.8181818,36.2303315 31.8181818,38.6356049 C31.8181818,41.0423958 29.8602372,43 27.4545455,43 Z" id="Shape" fill="#00FF40" fill-rule="nonzero"></path>
                <path d="M37.5970557,29.1814289 C37.4005163,29.1814289 37.2039769,29.1051249 37.0535013,28.954074 C34.4892757,26.3535083 31.0805447,24.9208613 27.4537777,24.9208613 C23.8285462,24.9208613 20.4182797,26.3535083 17.8555896,28.954074 C17.556174,29.2577329 17.0694318,29.2577329 16.7700162,28.954074 C16.4706007,28.6504152 16.4706007,28.1567748 16.7700162,27.853116 C19.6244446,24.9582347 23.4185772,23.3636364 27.4537777,23.3636364 C31.4905137,23.3636364 35.2846463,24.9566775 38.1390747,27.853116 C38.4384903,28.1567748 38.4384903,28.6504152 38.1390747,28.954074 C37.9901346,29.1051249 37.7935952,29.1814289 37.5970557,29.1814289 Z" id="Path" stroke="#FFFFFF" fill="#FFFFFF"></path>
                <path d="M44.865742,21.9087064 C44.6685614,21.9087064 44.4713809,21.833337 44.3204145,21.6841364 C35.0205788,12.3967847 19.8869716,12.3983229 10.5871359,21.6841364 C10.2867437,21.9840757 9.7984137,21.9840757 9.49802145,21.6841364 C9.19762921,21.3841971 9.19762921,20.8966035 9.49802145,20.5966641 C19.3986417,10.7094338 35.5089087,10.710972 45.4110695,20.5966641 C45.7114617,20.8966035 45.7114617,21.3841971 45.4110695,21.6841364 C45.2601031,21.833337 45.0629225,21.9087064 44.865742,21.9087064 Z" id="Path" stroke="#FFFFFF" fill="#FFFFFF"></path>
                <path d="M52.1388864,14.6359817 C51.9414178,14.6359817 51.7439493,14.5611154 51.5927624,14.4129106 C38.285233,1.23491218 16.6269434,1.23185642 3.31632848,14.4129106 C3.01549748,14.710848 2.52645426,14.710848 2.22562325,14.4129106 C1.92479225,14.1149733 1.92479225,13.6306341 2.22562325,13.3326967 C16.1379002,-0.445760081 38.7727335,-0.442704313 52.6834677,13.3326967 C52.9842987,13.6306341 52.9842987,14.1149733 52.6834677,14.4129106 C52.5338235,14.5611154 52.336355,14.6359817 52.1388864,14.6359817 Z" id="Path" stroke="#FFFFFF" fill="#FFFFFF"></path>
            </g>
        </g>
    </g>
</svg>