<?xml version="1.0" encoding="utf-8"?>
<!-- Generator: Adobe Illustrator 15.0.2, SVG Export Plug-In . SVG Version: 6.00 Build 0)  -->
<!DOCTYPE svg PUBLIC "-//W3C//DTD SVG 1.1//EN" "http://www.w3.org/Graphics/SVG/1.1/DTD/svg11.dtd">
<svg version="1.1" id="Layer1" xmlns="http://www.w3.org/2000/svg" xmlns:xlink="http://www.w3.org/1999/xlink" x="0px" y="0px"
	 width="62px" height="62px" viewBox="0 0 62 62" enable-background="new 0 0 62 62" xml:space="preserve">
<g id="Circle" inkscape:version="0.92.2 5c3e80d, 2017-08-06" sodipodi:docname="pause.svg" xmlns:cc="http://creativecommons.org/ns#" xmlns:sodipodi="http://sodipodi.sourceforge.net/DTD/sodipodi-0.dtd" xmlns:rdf="http://www.w3.org/1999/02/22-rdf-syntax-ns#" xmlns:svg="http://www.w3.org/2000/svg" xmlns:inkscape="http://www.inkscape.org/namespaces/inkscape" xmlns:dc="http://purl.org/dc/elements/1.1/">
	
		<ellipse id="path4508" fill="none" stroke="#000000" stroke-width="3" stroke-linecap="round" stroke-linejoin="round" cx="30.8" cy="30.8" rx="29.041" ry="29.131"/>
	
		<path id="path4535" inkscape:connector-curvature="0" display="none" fill="none" stroke="#000000" stroke-width="2.2888" stroke-linejoin="round" d="
		M28.301,15.89l-0.004,29.64l-7.854-0.001l0.004-29.64L28.301,15.89z"/>
	
		<path id="path4535-5" inkscape:connector-curvature="0" display="none" fill="none" stroke="#000000" stroke-width="2.2888" stroke-linejoin="round" d="
		M41.695,15.89L41.69,45.53l-7.854-0.001l0.004-29.64L41.695,15.89z"/>
</g>
<g id="Controls">
	<g>
		
			<line fill="none" stroke="#231F20" stroke-width="2.88" stroke-linecap="round" stroke-miterlimit="10" x1="18.404" y1="12.98" x2="18.404" y2="48.62"/>
		<g>
			<circle stroke="#FFFFFF" stroke-width="1.1232" stroke-miterlimit="10" cx="18.404" cy="29" r="5.533"/>
			<ellipse fill="#FFFFFF" cx="18.404" cy="28.999" rx="1.946" ry="1.922"/>
		</g>
	</g>
	<g>
		
			<line fill="none" stroke="#231F20" stroke-width="2.88" stroke-linecap="round" stroke-miterlimit="10" x1="30.799" y1="12.98" x2="30.799" y2="48.62"/>
		<g>
			<circle stroke="#FFFFFF" stroke-width="1.1232" stroke-miterlimit="10" cx="30.799" cy="41" r="5.533"/>
			<path fill="#FFFFFF" d="M32.746,40.999c0,1.062-0.871,1.922-1.947,1.922c-1.075,0-1.947-0.86-1.947-1.922
				c0-1.059,0.872-1.92,1.947-1.92S32.746,39.94,32.746,40.999z"/>
		</g>
	</g>
	<g>
		
			<line fill="none" stroke="#231F20" stroke-width="2.88" stroke-linecap="round" stroke-miterlimit="10" x1="43.198" y1="12.98" x2="43.198" y2="48.62"/>
		<g>
			<circle stroke="#FFFFFF" stroke-width="1.1232" stroke-miterlimit="10" cx="43.198" cy="20.999" r="5.533"/>
			<path fill="#FFFFFF" d="M45.144,20.998c0,1.062-0.872,1.922-1.946,1.922c-1.075,0-1.947-0.86-1.947-1.922
				c0-1.059,0.872-1.92,1.947-1.92C44.272,19.078,45.144,19.94,45.144,20.998z"/>
		</g>
	</g>
</g>
</svg>
