<?xml version="1.0" encoding="UTF-8" standalone="no"?>
<svg
   xmlns:dc="http://purl.org/dc/elements/1.1/"
   xmlns:cc="http://creativecommons.org/ns#"
   xmlns:rdf="http://www.w3.org/1999/02/22-rdf-syntax-ns#"
   xmlns:svg="http://www.w3.org/2000/svg"
   xmlns="http://www.w3.org/2000/svg"
   xmlns:sodipodi="http://sodipodi.sourceforge.net/DTD/sodipodi-0.dtd"
   xmlns:inkscape="http://www.inkscape.org/namespaces/inkscape"
   version="1.0"
   width="60pt"
   height="60pt"
   viewBox="0 0 60 60"
   preserveAspectRatio="xMidYMid meet"
   id="svg8"
   sodipodi:docname="psu-on.svg"
   inkscape:version="0.92.4 (f8dce91, 2019-08-02)">
  <defs
     id="defs12" />
  <sodipodi:namedview
     pagecolor="#ffffff"
     bordercolor="#666666"
     borderopacity="1"
     objecttolerance="10"
     gridtolerance="10"
     guidetolerance="10"
     inkscape:pageopacity="0"
     inkscape:pageshadow="2"
     inkscape:window-width="1853"
     inkscape:window-height="1145"
     id="namedview10"
     showgrid="false"
     inkscape:zoom="0.78223688"
     inkscape:cx="833.34287"
     inkscape:cy="334.66168"
     inkscape:window-x="67"
     inkscape:window-y="27"
     inkscape:window-maximized="1"
     inkscape:current-layer="svg8" />
  <metadata
     id="metadata2">
Created by potrace 1.15, written by Peter Selinger 2001-2017
<rdf:RDF>
  <cc:Work
     rdf:about="">
    <dc:format>image/svg+xml</dc:format>
    <dc:type
       rdf:resource="http://purl.org/dc/dcmitype/StillImage" />
    <dc:title></dc:title>
  </cc:Work>
</rdf:RDF>
</metadata>
  <g
     transform="matrix(0.00416415,0,0,-0.00415314,3.726006,57.388367)"
     id="g6"
     style="fill:#00ff00;stroke:none">
    <path
       d="m 5713,11820 c -40,-17 -68,-57 -429,-602 C 4444,9949 4598,10182 2970,7720 2510,7024 2128,6445 2122,6433 c -19,-35 -14,-68 16,-95 16,-15 467,-225 1092,-508 586,-266 1077,-491 1092,-502 38,-27 45,-60 20,-102 -11,-19 -150,-191 -308,-382 -159,-192 -367,-443 -462,-559 -96,-115 -233,-282 -306,-370 -73,-88 -350,-423 -616,-745 -266,-322 -543,-657 -616,-745 -73,-88 -212,-257 -310,-375 -775,-938 -724,-873 -724,-909 0,-58 77,-131 139,-131 45,0 -264,-173 2656,1483 369,209 1226,695 1905,1080 679,385 1669,946 2200,1247 531,301 1352,766 1825,1035 473,268 870,496 883,508 29,27 26,64 -8,89 -14,10 -504,236 -1090,501 -586,266 -1084,494 -1108,506 -50,25 -70,60 -56,97 9,23 109,146 794,974 166,201 361,437 434,525 73,88 307,372 521,630 214,259 491,594 616,745 125,151 417,505 649,785 232,281 428,523 436,538 19,35 10,65 -23,78 -15,5 -1168,9 -3021,9 -2931,0 -2998,-1 -3039,-20 z"
       id="path4"
       inkscape:connector-curvature="0"
       style="fill:#00ff00" />
  </g>
</svg>
