<?xml version="1.0" encoding="utf-8"?>
<!-- Generator: Adobe Illustrator 15.0.2, SVG Export Plug-In . SVG Version: 6.00 Build 0)  -->
<!DOCTYPE svg PUBLIC "-//W3C//DTD SVG 1.1//EN" "http://www.w3.org/Graphics/SVG/1.1/DTD/svg11.dtd">
<svg version="1.1" id="Layer_5" xmlns="http://www.w3.org/2000/svg" xmlns:xlink="http://www.w3.org/1999/xlink" x="0px" y="0px"
	 width="60.137px" height="60.777px" viewBox="0 0 60.137 60.777" enable-background="new 0 0 60.137 60.777" xml:space="preserve">
<g>
	<path fill-rule="evenodd" clip-rule="evenodd" fill="#FFFFFF" d="M19.428,6.047c0.409,1.181,0.753,2.427,1.178,3.593
		c0.532,0.171,1.014,0.134,1.548,0.248c0.465,0.1,0.977,0.426,1.363,0.372c0.343-0.047,1.323-0.987,1.61-1.239
		c0.547-0.478,0.965-0.98,1.486-1.301c1.298,0.519,2.417,1.218,3.407,2.044c-0.302,1.247-0.754,2.344-1.114,3.531
		c0.675,0.81,1.435,1.538,2.106,2.354c1.287-0.116,2.539-0.27,3.902-0.31c0.607,1.146,1.159,2.349,1.547,3.716
		c-1.002,0.709-2.021,1.405-2.973,2.168c0.052,1.022,0.32,1.827,0.249,2.973c1.01,0.828,2.329,1.346,3.345,2.167
		c-0.174,1.458-0.49,2.773-0.93,3.965c-1.219,0-2.438,0-3.653,0c-0.229,0.467-0.471,0.84-0.745,1.301
		c-0.192,0.325-0.712,0.95-0.742,1.302c-0.05,0.537,0.512,1.24,0.742,1.796c0.266,0.634,0.454,1.211,0.683,1.797
		c-0.66,0.688-1.363,1.37-2.23,2.043c-0.73,0.565-0.819,0.641-1.612,0.062c-0.735-0.538-1.424-1.083-2.167-1.55
		c-0.938,0.385-1.714,0.93-2.787,1.179c-0.355,1.215-0.581,2.558-0.93,3.778c-1.208,0.258-2.539,0.393-4.026,0.371
		c-0.412-1.094-0.778-2.235-1.114-3.406c-0.988-0.231-2.101-0.337-2.974-0.681c-0.555,0.354-0.963,0.735-1.549,1.238
		c-0.338,0.289-1.013,1.2-1.486,1.238c-0.396,0.033-1.52-0.727-1.859-0.929c-0.626-0.372-1.133-0.72-1.61-1.114
		c0.357-1.151,0.703-2.312,1.115-3.409c-0.72-0.766-1.423-1.549-2.106-2.354c-1.271,0.092-2.485,0.24-3.778,0.311
		c-0.447-0.434-0.621-1.033-0.93-1.734C2.176,31.074,1.57,30.215,1.65,29.71c0.073-0.458,1.143-0.925,1.487-1.177
		c0.6-0.439,1.032-0.769,1.486-1.177c-0.171-0.901-0.287-1.86-0.31-2.911c-1.021-0.837-2.334-1.382-3.407-2.168
		c0.171-1.419,0.459-2.721,0.867-3.902c1.239,0,2.479,0,3.717,0c0.547-0.898,1.011-1.88,1.61-2.726
		c-0.428-1.286-0.979-2.448-1.486-3.655c0.817-1.082,1.899-1.9,2.974-2.725c1.071,0.704,2.046,1.506,3.097,2.23
		c0.933-0.389,1.744-0.9,2.788-1.177c0.373-1.278,0.598-2.706,0.991-3.965C16.667,6.135,17.944,5.987,19.428,6.047z"/>
	<path fill-rule="evenodd" clip-rule="evenodd" fill="#FFFFFF" d="M45.877,26.956c0.427,0.937,0.811,1.915,1.177,2.911
		c0.794,0.214,1.462,0.332,2.23,0.62c0.365,0.137,0.813,0.432,1.054,0.434c0.436,0.002,1.032-0.522,1.425-0.744
		c0.505-0.287,0.919-0.539,1.361-0.805c1.237,0.704,2.159,1.724,3.035,2.787c-0.446,0.979-1.019,1.83-1.485,2.789
		c0.461,0.984,0.976,1.914,1.177,3.158c0.953,0.472,2.082,0.769,3.035,1.238c0.181,1.385-0.039,2.891-0.31,4.027
		c-0.959,0.239-2.034,0.36-3.035,0.558c-0.58,1.072-1.079,2.225-1.858,3.098c0.137,0.495,0.333,0.957,0.495,1.485
		c0.146,0.479,0.488,1.178,0.434,1.55c-0.076,0.514-1.094,1.026-1.487,1.301c-0.616,0.428-1.163,0.742-1.734,1.052
		c-0.896-0.629-1.604-1.451-2.478-2.105c-1.108,0.233-2.153,0.532-3.53,0.495c-0.735,0.835-1.225,1.916-1.981,2.727
		c-1.441-0.19-2.629-0.635-3.718-1.179c0.015-1.1,0.115-2.114,0.124-3.22c-0.914-0.8-1.89-1.539-2.602-2.539
		c-1.161,0.036-2.246,0.147-3.344,0.247c-0.304-0.504-0.551-1.068-0.808-1.734c-0.201-0.523-0.675-1.395-0.556-1.92
		c0.08-0.358,0.986-0.832,1.301-1.054c0.534-0.377,0.951-0.637,1.361-0.991c-0.021-1.261-0.021-2.499,0.311-3.407
		c-0.633-0.956-1.544-1.636-2.229-2.539c0.491-1.366,1.229-2.487,2.105-3.47c0.481,0.163,0.977,0.35,1.487,0.496
		c0.49,0.141,1.154,0.426,1.548,0.371c0.302-0.041,0.756-0.552,1.116-0.805c0.673-0.475,1.127-0.809,1.981-1.053
		c0.057-1.142,0.146-2.249,0.371-3.221C42.98,27.114,44.348,26.955,45.877,26.956z"/>
	<circle fill-rule="evenodd" clip-rule="evenodd" cx="18.995" cy="24.222" r="8.672"/>
	<circle fill-rule="evenodd" clip-rule="evenodd" cx="45.715" cy="40.244" r="4.977"/>
</g>
</svg>
