<?xml version="1.0" encoding="utf-8"?>
<!-- Generator: Adobe Illustrator 15.0.2, SVG Export Plug-In . SVG Version: 6.00 Build 0)  -->
<!DOCTYPE svg PUBLIC "-//W3C//DTD SVG 1.1//EN" "http://www.w3.org/Graphics/SVG/1.1/DTD/svg11.dtd">
<svg version="1.1" id="Layer_2" xmlns="http://www.w3.org/2000/svg" xmlns:xlink="http://www.w3.org/1999/xlink" x="0px" y="0px"
	 width="52px" height="60px" viewBox="0 0 52 60" enable-background="new 0 0 52 60" xml:space="preserve">
<g id="Upper_row">
	<g id="toolhead_1_1_">
		<g id="Layer_right">
			<path fill="none" stroke="#FFFFFF" stroke-width="1.3144" stroke-linejoin="round" stroke-miterlimit="10" d="M14.99,18.002
				h3.201c0.465,0,0.873,0.406,0.873,0.872c0,0.465-0.408,0.873-0.873,0.873h-7.274"/>
			
				<polyline fill="none" stroke="#FFFFFF" stroke-width="1.3154" stroke-linecap="round" stroke-linejoin="round" stroke-miterlimit="10" points="
				10.626,21.494 14.7,21.494 12.082,24.693 10.422,24.693 9.168,23.165 			"/>
			<path fill="none" stroke="#FFFFFF" stroke-width="1.3144" stroke-linejoin="round" stroke-miterlimit="10" d="M17.318,18.002
				V9.128c0-0.553-0.466-1.018-1.019-1.018h-7.71"/>
			<g>
				<path fill="none" stroke="#FFFFFF" stroke-width="1.3144" stroke-linejoin="round" stroke-miterlimit="10" d="M11.186,7.237
					c0,0,0-0.408,0-0.874s0.524-0.872,1.164-0.872h2.037c0.64,0,1.164-0.524,1.164-1.165V2"/>
			</g>
			
				<line fill="none" stroke="#FFFFFF" stroke-width="1.3144" stroke-linecap="round" stroke-linejoin="round" stroke-miterlimit="10" x1="17.318" y1="18.002" x2="14.117" y2="18.002"/>
		</g>
		<g id="Layer_left">
			<path fill="none" stroke="#FFFFFF" stroke-width="1.3144" stroke-linejoin="round" stroke-miterlimit="10" d="M11.58,19.747
				H4.306c-0.465,0-0.873-0.407-0.873-0.873c0-0.466,0.407-0.872,0.873-0.872h3.201"/>
			
				<polyline fill="none" stroke="#FFFFFF" stroke-width="1.3154" stroke-linecap="round" stroke-linejoin="round" stroke-miterlimit="10" points="
				13.301,23.196 12.074,24.693 10.415,24.693 7.797,21.494 11.871,21.494 			"/>
			<path fill="none" stroke="#FFFFFF" stroke-width="1.3144" stroke-linejoin="round" stroke-miterlimit="10" d="M13.907,8.109
				h-7.71c-0.553,0-1.019,0.465-1.019,1.019v8.874"/>
			
				<line fill="none" stroke="#FFFFFF" stroke-width="1.3144" stroke-linecap="round" stroke-linejoin="round" stroke-miterlimit="10" x1="8.378" y1="18.002" x2="5.178" y2="18.002"/>
		</g>
	</g>
	<g id="toolhead_2_1_">
		<g id="Layer_right_1_">
			<path fill="none" stroke="#FFFFFF" stroke-width="1.3144" stroke-linejoin="round" stroke-miterlimit="10" d="M44.99,18.002h3.2
				c0.466,0,0.873,0.406,0.873,0.872c0,0.465-0.407,0.873-0.873,0.873h-7.274"/>
			
				<polyline fill="none" stroke="#FFFFFF" stroke-width="1.3154" stroke-linecap="round" stroke-linejoin="round" stroke-miterlimit="10" points="
				40.627,21.494 44.699,21.494 42.082,24.693 40.422,24.693 39.168,23.165 			"/>
			<path fill="none" stroke="#FFFFFF" stroke-width="1.3144" stroke-linejoin="round" stroke-miterlimit="10" d="M47.318,18.002
				V9.128c0-0.553-0.467-1.018-1.02-1.018H38.59"/>
			<g>
				<path fill="none" stroke="#FFFFFF" stroke-width="1.3144" stroke-linejoin="round" stroke-miterlimit="10" d="M41.186,7.237
					c0,0,0-0.408,0-0.874s0.523-0.872,1.164-0.872h2.037c0.639,0,1.163-0.524,1.163-1.165V2"/>
			</g>
			
				<line fill="none" stroke="#FFFFFF" stroke-width="1.3144" stroke-linecap="round" stroke-linejoin="round" stroke-miterlimit="10" x1="47.318" y1="18.002" x2="44.117" y2="18.002"/>
		</g>
		<g id="Layer_left_1_">
			<path fill="none" stroke="#FFFFFF" stroke-width="1.3144" stroke-linejoin="round" stroke-miterlimit="10" d="M41.58,19.747
				h-7.274c-0.466,0-0.872-0.407-0.872-0.873c0-0.466,0.406-0.872,0.872-0.872h3.2"/>
			
				<polyline fill="none" stroke="#FFFFFF" stroke-width="1.3154" stroke-linecap="round" stroke-linejoin="round" stroke-miterlimit="10" points="
				43.301,23.196 42.074,24.693 40.415,24.693 37.797,21.494 41.871,21.494 			"/>
			<path fill="none" stroke="#FFFFFF" stroke-width="1.3144" stroke-linejoin="round" stroke-miterlimit="10" d="M43.907,8.109
				h-7.71c-0.553,0-1.02,0.465-1.02,1.019v8.874"/>
			
				<line fill="none" stroke="#FFFFFF" stroke-width="1.3144" stroke-linecap="round" stroke-linejoin="round" stroke-miterlimit="10" x1="38.379" y1="18.002" x2="35.178" y2="18.002"/>
		</g>
	</g>
</g>
<g id="Lower_row">
	<g id="toolhead_3_1_">
		<g id="Layer_right_3_">
			<path fill="none" stroke="#FFFFFF" stroke-width="1.3144" stroke-linejoin="round" stroke-miterlimit="10" d="M14.99,50.502
				h3.201c0.465,0,0.873,0.406,0.873,0.873c0,0.465-0.408,0.872-0.873,0.872h-7.274"/>
			
				<polyline fill="none" stroke="#FFFFFF" stroke-width="1.3154" stroke-linecap="round" stroke-linejoin="round" stroke-miterlimit="10" points="
				10.626,53.994 14.7,53.994 12.082,57.193 10.422,57.193 9.168,55.665 			"/>
			<path fill="none" stroke="#FFFFFF" stroke-width="1.3144" stroke-linejoin="round" stroke-miterlimit="10" d="M17.318,50.502
				v-8.874c0-0.553-0.466-1.019-1.019-1.019h-7.71"/>
			<g>
				<path fill="none" stroke="#FFFFFF" stroke-width="1.3144" stroke-linejoin="round" stroke-miterlimit="10" d="M11.186,39.737
					c0,0,0-0.408,0-0.874c0-0.465,0.524-0.871,1.164-0.871h2.037c0.64,0,1.164-0.525,1.164-1.165V34.5"/>
			</g>
			
				<line fill="none" stroke="#FFFFFF" stroke-width="1.3144" stroke-linecap="round" stroke-linejoin="round" stroke-miterlimit="10" x1="17.318" y1="50.502" x2="14.117" y2="50.502"/>
		</g>
		<g id="Layer_left_3_">
			<path fill="none" stroke="#FFFFFF" stroke-width="1.3144" stroke-linejoin="round" stroke-miterlimit="10" d="M11.58,52.247
				H4.306c-0.465,0-0.873-0.407-0.873-0.872c0-0.467,0.407-0.873,0.873-0.873h3.201"/>
			
				<polyline fill="none" stroke="#FFFFFF" stroke-width="1.3154" stroke-linecap="round" stroke-linejoin="round" stroke-miterlimit="10" points="
				13.301,55.695 12.074,57.193 10.415,57.193 7.797,53.994 11.871,53.994 			"/>
			<path fill="none" stroke="#FFFFFF" stroke-width="1.3144" stroke-linejoin="round" stroke-miterlimit="10" d="M13.907,40.609
				h-7.71c-0.553,0-1.019,0.465-1.019,1.019v8.874"/>
			
				<line fill="none" stroke="#FFFFFF" stroke-width="1.3144" stroke-linecap="round" stroke-linejoin="round" stroke-miterlimit="10" x1="8.378" y1="50.502" x2="5.178" y2="50.502"/>
		</g>
	</g>
	<g id="toolhead_4_1_">
		<g id="Layer_right_2_">
			<path fill="none" stroke="#FFFFFF" stroke-width="1.3144" stroke-linejoin="round" stroke-miterlimit="10" d="M44.99,50.502h3.2
				c0.466,0,0.873,0.406,0.873,0.873c0,0.465-0.407,0.872-0.873,0.872h-7.274"/>
			
				<polyline fill="none" stroke="#FFFFFF" stroke-width="1.3154" stroke-linecap="round" stroke-linejoin="round" stroke-miterlimit="10" points="
				40.627,53.994 44.699,53.994 42.082,57.193 40.422,57.193 39.168,55.665 			"/>
			<path fill="none" stroke="#FFFFFF" stroke-width="1.3144" stroke-linejoin="round" stroke-miterlimit="10" d="M47.318,50.502
				v-8.874c0-0.553-0.467-1.019-1.02-1.019H38.59"/>
			<g>
				<path fill="none" stroke="#FFFFFF" stroke-width="1.3144" stroke-linejoin="round" stroke-miterlimit="10" d="M41.186,39.737
					c0,0,0-0.408,0-0.874c0-0.465,0.523-0.871,1.164-0.871h2.037c0.639,0,1.163-0.525,1.163-1.165V34.5"/>
			</g>
			
				<line fill="none" stroke="#FFFFFF" stroke-width="1.3144" stroke-linecap="round" stroke-linejoin="round" stroke-miterlimit="10" x1="47.318" y1="50.502" x2="44.117" y2="50.502"/>
		</g>
		<g id="Layer_left_2_">
			<path fill="none" stroke="#FFFFFF" stroke-width="1.3144" stroke-linejoin="round" stroke-miterlimit="10" d="M41.58,52.247
				h-7.274c-0.466,0-0.872-0.407-0.872-0.872c0-0.467,0.406-0.873,0.872-0.873h3.2"/>
			
				<polyline fill="none" stroke="#FFFFFF" stroke-width="1.3154" stroke-linecap="round" stroke-linejoin="round" stroke-miterlimit="10" points="
				43.301,55.695 42.074,57.193 40.415,57.193 37.797,53.994 41.871,53.994 			"/>
			<path fill="none" stroke="#FFFFFF" stroke-width="1.3144" stroke-linejoin="round" stroke-miterlimit="10" d="M43.907,40.609
				h-7.71c-0.553,0-1.02,0.465-1.02,1.019v8.874"/>
			
				<line fill="none" stroke="#FFFFFF" stroke-width="1.3144" stroke-linecap="round" stroke-linejoin="round" stroke-miterlimit="10" x1="38.379" y1="50.502" x2="35.178" y2="50.502"/>
		</g>
	</g>
</g>
</svg>
