<?xml version="1.0" encoding="utf-8"?>
<!-- Generator: Adobe Illustrator 15.0.2, SVG Export Plug-In . SVG Version: 6.00 Build 0)  -->
<!DOCTYPE svg PUBLIC "-//W3C//DTD SVG 1.1//EN" "http://www.w3.org/Graphics/SVG/1.1/DTD/svg11.dtd">
<svg version="1.1" id="Layer_1" xmlns="http://www.w3.org/2000/svg" xmlns:xlink="http://www.w3.org/1999/xlink" x="0px" y="0px"
	 width="52px" height="60px" viewBox="0 0 52 60" enable-background="new 0 0 52 60" xml:space="preserve">
<g id="Row_1">
	<g id="toolhead_1" transform="translate(69.000000, 313.000000)">
		<g id="Group" transform="translate(3.000000, 1.000000)">
			<path id="Line" fill="#FFFFFF" stroke="#FFFFFF" stroke-width="3" stroke-linecap="round" d="M-68.811-310.427l2.104-1.148"/>
			<path id="Line-2" fill="#FFFFFF" stroke="#FFFFFF" stroke-width="3" stroke-linecap="round" d="M-66.707-311.575h3.252"/>
			<path id="Line-3" fill="#FFFFFF" stroke="#FFFFFF" stroke-width="3" stroke-linecap="round" stroke-linejoin="round" d="
				M-63.455-311.575l1.148,1.531"/>
			<path id="Line-5" fill="#FFFFFF" stroke="#FFFFFF" stroke-width="3" stroke-linecap="round" d="M-68.811-310.427v4.592"/>
			<path id="Line-4" fill="#FFFFFF" stroke="#FFFFFF" stroke-width="3" stroke-linecap="round" d="M-62.307-310.044h4.592"/>
			<path id="Line-6" fill="#FFFFFF" stroke="#FFFFFF" stroke-width="3" stroke-linecap="round" d="M-68.811-305.835l1.339,2.295"/>
			<path id="Line-8" fill="#FFFFFF" stroke="#FFFFFF" stroke-width="3" stroke-linecap="round" d="M-67.472-293.591l-1.339,1.913"/>
			<path id="Line-9" fill="#FFFFFF" stroke="#FFFFFF" stroke-width="3" stroke-linecap="round" d="M-68.811-291.678v5.357"/>
			<path id="Line-7" fill="#FFFFFF" stroke="#FFFFFF" stroke-width="3" stroke-linecap="round" d="M-67.472-303.54v9.949"/>
			<path id="Line-10" fill="#FFFFFF" stroke="#FFFFFF" stroke-width="3" stroke-linecap="round" d="M-68.811-286.32l4.974,0.957"/>
			<path id="Line-11" fill="#FFFFFF" stroke="#FFFFFF" stroke-width="3" stroke-linecap="round" d="M-63.837-285.364l1.53-1.722"/>
			<path id="Line-12" fill="#FFFFFF" stroke="#FFFFFF" stroke-width="3" stroke-linecap="round" d="M-62.307-287.085h4.592"/>
		</g>
		
			<g id="Group_1_" transform="translate(36.564815, 28.925926) scale(-1, 1) translate(-36.564815, -28.925926) translate(24.212963, 1.000000)">
			<path id="Line_1_" fill="none" stroke="#FFFFFF" stroke-width="3" stroke-linecap="round" d="M93.3-310.427l2.104-1.148"/>
			<path id="Line-2_1_" fill="none" stroke="#FFFFFF" stroke-width="3" stroke-linecap="round" d="M95.404-311.575h3.252"/>
			<path id="Line-3_1_" fill="none" stroke="#FFFFFF" stroke-width="3" stroke-linecap="round" stroke-linejoin="round" d="
				M98.656-311.575l1.149,1.531"/>
			<path id="Line-5_1_" fill="none" stroke="#FFFFFF" stroke-width="3" stroke-linecap="round" d="M93.3-310.427v4.592"/>
			<path id="Line-4_1_" fill="none" stroke="#FFFFFF" stroke-width="3" stroke-linecap="round" d="M99.805-310.044h4.591"/>
			<path id="Line-6_1_" fill="none" stroke="#FFFFFF" stroke-width="3" stroke-linecap="round" d="M93.3-305.835l1.339,2.295"/>
			<path id="Line-8_1_" fill="none" stroke="#FFFFFF" stroke-width="3" stroke-linecap="round" d="M94.639-293.591l-1.339,1.913"/>
			<path id="Line-9_1_" fill="none" stroke="#FFFFFF" stroke-width="3" stroke-linecap="round" d="M93.3-291.678v5.357"/>
			<path id="Line-7_1_" fill="none" stroke="#FFFFFF" stroke-width="3" stroke-linecap="round" d="M94.639-303.54v9.949"/>
			<path id="Line-10_1_" fill="none" stroke="#FFFFFF" stroke-width="3" stroke-linecap="round" d="M93.3-286.32l4.975,0.957"/>
			<path id="Line-11_1_" fill="none" stroke="#FFFFFF" stroke-width="3" stroke-linecap="round" d="M98.275-285.364l1.531-1.722"/>
			<path id="Line-12_1_" fill="none" stroke="#FFFFFF" stroke-width="3" stroke-linecap="round" d="M99.805-287.085h4.591"/>
		</g>
		<circle id="Oval" fill="none" stroke="#FFFFFF" stroke-width="3" cx="-55.098" cy="-299.478" r="7.461"/>
		<path id="Line-16" fill="none" stroke="#FFFFFF" stroke-width="2" stroke-linecap="round" d="M-56.245-284.938l1.147,1.531"/>
		<path id="Line-17" fill="none" stroke="#FFFFFF" stroke-width="2" stroke-linecap="round" d="M-55.098-283.407l1.147-1.531"/>
		<path id="Line-14" fill="none" stroke="#FFFFFF" stroke-width="2" stroke-linecap="round" d="M-58.542-284.938h6.889"/>
	</g>
	<g id="toolhead_2" transform="translate(69.000000, 313.000000)">
		<g id="Group_3_" transform="translate(3.000000, 1.000000)">
			<path id="Line_3_" fill="#FFFFFF" stroke="#FFFFFF" stroke-width="3" stroke-linecap="round" d="M-45.061-310.427l2.104-1.148"/>
			<path id="Line-2_3_" fill="#FFFFFF" stroke="#FFFFFF" stroke-width="3" stroke-linecap="round" d="M-42.957-311.575h3.252"/>
			<path id="Line-3_3_" fill="#FFFFFF" stroke="#FFFFFF" stroke-width="3" stroke-linecap="round" stroke-linejoin="round" d="
				M-39.705-311.575l1.148,1.531"/>
			<path id="Line-5_3_" fill="#FFFFFF" stroke="#FFFFFF" stroke-width="3" stroke-linecap="round" d="M-45.061-310.427v4.592"/>
			<path id="Line-4_3_" fill="#FFFFFF" stroke="#FFFFFF" stroke-width="3" stroke-linecap="round" d="M-38.557-310.044h4.592"/>
			<path id="Line-6_3_" fill="#FFFFFF" stroke="#FFFFFF" stroke-width="3" stroke-linecap="round" d="M-45.061-305.835l1.338,2.295"
				/>
			<path id="Line-8_3_" fill="#FFFFFF" stroke="#FFFFFF" stroke-width="3" stroke-linecap="round" d="M-43.723-293.591l-1.338,1.913
				"/>
			<path id="Line-9_3_" fill="#FFFFFF" stroke="#FFFFFF" stroke-width="3" stroke-linecap="round" d="M-45.061-291.678v5.357"/>
			<path id="Line-7_3_" fill="#FFFFFF" stroke="#FFFFFF" stroke-width="3" stroke-linecap="round" d="M-43.723-303.54v9.949"/>
			<path id="Line-10_3_" fill="#FFFFFF" stroke="#FFFFFF" stroke-width="3" stroke-linecap="round" d="M-45.061-286.32l4.975,0.957"
				/>
			<path id="Line-11_3_" fill="#FFFFFF" stroke="#FFFFFF" stroke-width="3" stroke-linecap="round" d="M-40.086-285.364l1.529-1.722
				"/>
			<path id="Line-12_3_" fill="#FFFFFF" stroke="#FFFFFF" stroke-width="3" stroke-linecap="round" d="M-38.557-287.085h4.592"/>
		</g>
		
			<g id="Group_2_" transform="translate(36.564815, 28.925926) scale(-1, 1) translate(-36.564815, -28.925926) translate(24.212963, 1.000000)">
			<path id="Line_2_" fill="none" stroke="#FFFFFF" stroke-width="3" stroke-linecap="round" d="M69.549-310.427l2.104-1.148"/>
			<path id="Line-2_2_" fill="none" stroke="#FFFFFF" stroke-width="3" stroke-linecap="round" d="M71.654-311.575h3.253"/>
			<path id="Line-3_2_" fill="none" stroke="#FFFFFF" stroke-width="3" stroke-linecap="round" stroke-linejoin="round" d="
				M74.907-311.575l1.148,1.531"/>
			<path id="Line-5_2_" fill="none" stroke="#FFFFFF" stroke-width="3" stroke-linecap="round" d="M69.549-310.427v4.592"/>
			<path id="Line-4_2_" fill="none" stroke="#FFFFFF" stroke-width="3" stroke-linecap="round" d="M76.055-310.044h4.592"/>
			<path id="Line-6_2_" fill="none" stroke="#FFFFFF" stroke-width="3" stroke-linecap="round" d="M69.549-305.835l1.34,2.295"/>
			<path id="Line-8_2_" fill="none" stroke="#FFFFFF" stroke-width="3" stroke-linecap="round" d="M70.889-293.591l-1.34,1.913"/>
			<path id="Line-9_2_" fill="none" stroke="#FFFFFF" stroke-width="3" stroke-linecap="round" d="M69.549-291.678v5.357"/>
			<path id="Line-7_2_" fill="none" stroke="#FFFFFF" stroke-width="3" stroke-linecap="round" d="M70.889-303.54v9.949"/>
			<path id="Line-10_2_" fill="none" stroke="#FFFFFF" stroke-width="3" stroke-linecap="round" d="M69.549-286.32l4.975,0.957"/>
			<path id="Line-11_2_" fill="none" stroke="#FFFFFF" stroke-width="3" stroke-linecap="round" d="M74.524-285.364l1.531-1.722"/>
			<path id="Line-12_2_" fill="none" stroke="#FFFFFF" stroke-width="3" stroke-linecap="round" d="M76.055-287.085h4.592"/>
		</g>
		<circle id="Oval_1_" fill="none" stroke="#FFFFFF" stroke-width="3" cx="-31.348" cy="-299.478" r="7.461"/>
		<path id="Line-16_1_" fill="none" stroke="#FFFFFF" stroke-width="2" stroke-linecap="round" d="M-32.495-284.938l1.147,1.531"/>
		<path id="Line-17_1_" fill="none" stroke="#FFFFFF" stroke-width="2" stroke-linecap="round" d="M-31.348-283.407l1.147-1.531"/>
		<path id="Line-14_1_" fill="none" stroke="#FFFFFF" stroke-width="2" stroke-linecap="round" d="M-34.791-284.938h6.889"/>
	</g>
</g>
<g id="Row_2">
	<g id="toolhead_3" transform="translate(69.000000, 313.000000)">
		<g id="Group_7_" transform="translate(3.000000, 1.000000)">
			<path id="Line_7_" fill="#FFFFFF" stroke="#FFFFFF" stroke-width="3" stroke-linecap="round" d="M-68.811-282.444l2.104-1.148"/>
			<path id="Line-2_7_" fill="#FFFFFF" stroke="#FFFFFF" stroke-width="3" stroke-linecap="round" d="M-66.707-283.593h3.252"/>
			<path id="Line-3_7_" fill="#FFFFFF" stroke="#FFFFFF" stroke-width="3" stroke-linecap="round" stroke-linejoin="round" d="
				M-63.455-283.593l1.148,1.53"/>
			<path id="Line-5_7_" fill="#FFFFFF" stroke="#FFFFFF" stroke-width="3" stroke-linecap="round" d="M-68.811-282.444v4.591"/>
			<path id="Line-4_7_" fill="#FFFFFF" stroke="#FFFFFF" stroke-width="3" stroke-linecap="round" d="M-62.307-282.062h4.592"/>
			<path id="Line-6_7_" fill="#FFFFFF" stroke="#FFFFFF" stroke-width="3" stroke-linecap="round" d="M-68.811-277.854l1.339,2.297"
				/>
			<path id="Line-8_7_" fill="#FFFFFF" stroke="#FFFFFF" stroke-width="3" stroke-linecap="round" d="M-67.472-265.609l-1.339,1.914
				"/>
			<path id="Line-9_7_" fill="#FFFFFF" stroke="#FFFFFF" stroke-width="3" stroke-linecap="round" d="M-68.811-263.695v5.357"/>
			<path id="Line-7_7_" fill="#FFFFFF" stroke="#FFFFFF" stroke-width="3" stroke-linecap="round" d="M-67.472-275.557v9.947"/>
			<path id="Line-10_7_" fill="#FFFFFF" stroke="#FFFFFF" stroke-width="3" stroke-linecap="round" d="M-68.811-258.338l4.974,0.957
				"/>
			<path id="Line-11_7_" fill="#FFFFFF" stroke="#FFFFFF" stroke-width="3" stroke-linecap="round" d="M-63.837-257.381l1.53-1.723"
				/>
			<path id="Line-12_7_" fill="#FFFFFF" stroke="#FFFFFF" stroke-width="3" stroke-linecap="round" d="M-62.307-259.104h4.592"/>
		</g>
		
			<g id="Group_6_" transform="translate(36.564815, 28.925926) scale(-1, 1) translate(-36.564815, -28.925926) translate(24.212963, 1.000000)">
			<path id="Line_6_" fill="none" stroke="#FFFFFF" stroke-width="3" stroke-linecap="round" d="M93.3-282.444l2.104-1.148"/>
			<path id="Line-2_6_" fill="none" stroke="#FFFFFF" stroke-width="3" stroke-linecap="round" d="M95.404-283.593h3.252"/>
			<path id="Line-3_6_" fill="none" stroke="#FFFFFF" stroke-width="3" stroke-linecap="round" stroke-linejoin="round" d="
				M98.656-283.593l1.149,1.53"/>
			<path id="Line-5_6_" fill="none" stroke="#FFFFFF" stroke-width="3" stroke-linecap="round" d="M93.3-282.444v4.591"/>
			<path id="Line-4_6_" fill="none" stroke="#FFFFFF" stroke-width="3" stroke-linecap="round" d="M99.805-282.062h4.591"/>
			<path id="Line-6_6_" fill="none" stroke="#FFFFFF" stroke-width="3" stroke-linecap="round" d="M93.3-277.854l1.339,2.297"/>
			<path id="Line-8_6_" fill="none" stroke="#FFFFFF" stroke-width="3" stroke-linecap="round" d="M94.639-265.609l-1.339,1.914"/>
			<path id="Line-9_6_" fill="none" stroke="#FFFFFF" stroke-width="3" stroke-linecap="round" d="M93.3-263.695v5.357"/>
			<path id="Line-7_6_" fill="none" stroke="#FFFFFF" stroke-width="3" stroke-linecap="round" d="M94.639-275.557v9.947"/>
			<path id="Line-10_6_" fill="none" stroke="#FFFFFF" stroke-width="3" stroke-linecap="round" d="M93.3-258.338l4.975,0.957"/>
			<path id="Line-11_6_" fill="none" stroke="#FFFFFF" stroke-width="3" stroke-linecap="round" d="M98.275-257.381l1.531-1.723"/>
			<path id="Line-12_6_" fill="none" stroke="#FFFFFF" stroke-width="3" stroke-linecap="round" d="M99.805-259.104h4.591"/>
		</g>
		<circle id="Oval_3_" fill="none" stroke="#FFFFFF" stroke-width="3" cx="-55.098" cy="-271.496" r="7.462"/>
		<path id="Line-16_3_" fill="none" stroke="#FFFFFF" stroke-width="2" stroke-linecap="round" d="M-56.245-256.955l1.147,1.53"/>
		<path id="Line-17_3_" fill="none" stroke="#FFFFFF" stroke-width="2" stroke-linecap="round" d="M-55.098-255.425l1.147-1.53"/>
		<path id="Line-14_3_" fill="none" stroke="#FFFFFF" stroke-width="2" stroke-linecap="round" d="M-58.542-256.955h6.889"/>
	</g>
	<g id="toolhead_4" transform="translate(69.000000, 313.000000)">
		<g id="Group_5_" transform="translate(3.000000, 1.000000)">
			<path id="Line_5_" fill="#FFFFFF" stroke="#FFFFFF" stroke-width="3" stroke-linecap="round" d="M-45.061-282.444l2.104-1.148"/>
			<path id="Line-2_5_" fill="#FFFFFF" stroke="#FFFFFF" stroke-width="3" stroke-linecap="round" d="M-42.957-283.593h3.252"/>
			<path id="Line-3_5_" fill="#FFFFFF" stroke="#FFFFFF" stroke-width="3" stroke-linecap="round" stroke-linejoin="round" d="
				M-39.705-283.593l1.148,1.53"/>
			<path id="Line-5_5_" fill="#FFFFFF" stroke="#FFFFFF" stroke-width="3" stroke-linecap="round" d="M-45.061-282.444v4.591"/>
			<path id="Line-4_5_" fill="#FFFFFF" stroke="#FFFFFF" stroke-width="3" stroke-linecap="round" d="M-38.557-282.062h4.592"/>
			<path id="Line-6_5_" fill="#FFFFFF" stroke="#FFFFFF" stroke-width="3" stroke-linecap="round" d="M-45.061-277.854l1.338,2.297"
				/>
			<path id="Line-8_5_" fill="#FFFFFF" stroke="#FFFFFF" stroke-width="3" stroke-linecap="round" d="M-43.723-265.609l-1.338,1.914
				"/>
			<path id="Line-9_5_" fill="#FFFFFF" stroke="#FFFFFF" stroke-width="3" stroke-linecap="round" d="M-45.061-263.695v5.357"/>
			<path id="Line-7_5_" fill="#FFFFFF" stroke="#FFFFFF" stroke-width="3" stroke-linecap="round" d="M-43.723-275.557v9.947"/>
			<path id="Line-10_5_" fill="#FFFFFF" stroke="#FFFFFF" stroke-width="3" stroke-linecap="round" d="M-45.061-258.338l4.975,0.957
				"/>
			<path id="Line-11_5_" fill="#FFFFFF" stroke="#FFFFFF" stroke-width="3" stroke-linecap="round" d="M-40.086-257.381l1.529-1.723
				"/>
			<path id="Line-12_5_" fill="#FFFFFF" stroke="#FFFFFF" stroke-width="3" stroke-linecap="round" d="M-38.557-259.104h4.592"/>
		</g>
		
			<g id="Group_4_" transform="translate(36.564815, 28.925926) scale(-1, 1) translate(-36.564815, -28.925926) translate(24.212963, 1.000000)">
			<path id="Line_4_" fill="none" stroke="#FFFFFF" stroke-width="3" stroke-linecap="round" d="M69.549-282.444l2.104-1.148"/>
			<path id="Line-2_4_" fill="none" stroke="#FFFFFF" stroke-width="3" stroke-linecap="round" d="M71.654-283.593h3.253"/>
			<path id="Line-3_4_" fill="none" stroke="#FFFFFF" stroke-width="3" stroke-linecap="round" stroke-linejoin="round" d="
				M74.907-283.593l1.148,1.53"/>
			<path id="Line-5_4_" fill="none" stroke="#FFFFFF" stroke-width="3" stroke-linecap="round" d="M69.549-282.444v4.591"/>
			<path id="Line-4_4_" fill="none" stroke="#FFFFFF" stroke-width="3" stroke-linecap="round" d="M76.055-282.062h4.592"/>
			<path id="Line-6_4_" fill="none" stroke="#FFFFFF" stroke-width="3" stroke-linecap="round" d="M69.549-277.854l1.34,2.297"/>
			<path id="Line-8_4_" fill="none" stroke="#FFFFFF" stroke-width="3" stroke-linecap="round" d="M70.889-265.609l-1.34,1.914"/>
			<path id="Line-9_4_" fill="none" stroke="#FFFFFF" stroke-width="3" stroke-linecap="round" d="M69.549-263.695v5.357"/>
			<path id="Line-7_4_" fill="none" stroke="#FFFFFF" stroke-width="3" stroke-linecap="round" d="M70.889-275.557v9.947"/>
			<path id="Line-10_4_" fill="none" stroke="#FFFFFF" stroke-width="3" stroke-linecap="round" d="M69.549-258.338l4.975,0.957"/>
			<path id="Line-11_4_" fill="none" stroke="#FFFFFF" stroke-width="3" stroke-linecap="round" d="M74.524-257.381l1.531-1.723"/>
			<path id="Line-12_4_" fill="none" stroke="#FFFFFF" stroke-width="3" stroke-linecap="round" d="M76.055-259.104h4.592"/>
		</g>
		<circle id="Oval_2_" fill="none" stroke="#FFFFFF" stroke-width="3" cx="-31.348" cy="-271.496" r="7.462"/>
		<path id="Line-16_2_" fill="none" stroke="#FFFFFF" stroke-width="2" stroke-linecap="round" d="M-32.495-256.955l1.147,1.53"/>
		<path id="Line-17_2_" fill="none" stroke="#FFFFFF" stroke-width="2" stroke-linecap="round" d="M-31.348-255.425l1.147-1.53"/>
		<path id="Line-14_2_" fill="none" stroke="#FFFFFF" stroke-width="2" stroke-linecap="round" d="M-34.791-256.955h6.889"/>
	</g>
</g>
</svg>
