<?xml version="1.0" encoding="utf-8"?>
<!-- Generator: Adobe Illustrator 15.0.2, SVG Export Plug-In . SVG Version: 6.00 Build 0)  -->
<!DOCTYPE svg PUBLIC "-//W3C//DTD SVG 1.1//EN" "http://www.w3.org/Graphics/SVG/1.1/DTD/svg11.dtd">
<svg version="1.1" id="Layer_1" xmlns="http://www.w3.org/2000/svg" xmlns:xlink="http://www.w3.org/1999/xlink" x="0px" y="0px"
	 width="77px" height="80px" viewBox="0 0 77 80" enable-background="new 0 0 77 80" xml:space="preserve">
<g id="toolhead-3" transform="translate(63.000000, 192.000000)">
	<g id="toolhead">
		<g id="Group" transform="translate(10.000000, 6.000000)">
			<path id="Line" fill="none" stroke="#FFFFFF" stroke-width="2" stroke-linecap="round" d="M-62.5-188.5l5.5-3"/>
			<path id="Line-2" fill="none" stroke="#FFFFFF" stroke-width="2" stroke-linecap="round" d="M-57-191.5h8.5"/>
			<path id="Line-3" fill="none" stroke="#FFFFFF" stroke-width="2" stroke-linecap="round" stroke-linejoin="round" d="
				M-48.5-191.5l3,4"/>
			<path id="Line-5" fill="none" stroke="#FFFFFF" stroke-width="2" stroke-linecap="round" d="M-62.5-188.5v12"/>
			<path id="Line-4" fill="none" stroke="#FFFFFF" stroke-width="2" stroke-linecap="round" d="M-45.5-187.5h12"/>
			<path id="Line-6" fill="none" stroke="#FFFFFF" stroke-width="2" stroke-linecap="round" d="M-62.5-176.5l3.5,6"/>
			<path id="Line-8" fill="none" stroke="#FFFFFF" stroke-width="2" stroke-linecap="round" d="M-59-144.5l-3.5,5"/>
			<path id="Line-9" fill="none" stroke="#FFFFFF" stroke-width="2" stroke-linecap="round" d="M-62.5-139.5v14"/>
			<path id="Line-7" fill="none" stroke="#FFFFFF" stroke-width="2" stroke-linecap="round" d="M-59-170.5v26"/>
			<path id="Line-10" fill="none" stroke="#FFFFFF" stroke-width="2" stroke-linecap="round" d="M-62.5-125.5l13,2.5"/>
			<path id="Line-11" fill="none" stroke="#FFFFFF" stroke-width="2" stroke-linecap="round" d="M-49.5-123l4-4.5"/>
			<path id="Line-12" fill="none" stroke="#FFFFFF" stroke-width="2" stroke-linecap="round" d="M-45.5-127.5h12"/>
		</g>
		
			<g id="Group_1_" transform="translate(52.000000, 40.500000) scale(-1, 1) translate(-52.000000, -40.500000) translate(37.000000, 6.000000)">
			<path id="Line_1_" fill="none" stroke="#FFFFFF" stroke-width="2" stroke-linecap="round" d="M63.5-188.5l5.5-3"/>
			<path id="Line-2_1_" fill="none" stroke="#FFFFFF" stroke-width="2" stroke-linecap="round" d="M69-191.5h8.5"/>
			<path id="Line-3_1_" fill="none" stroke="#FFFFFF" stroke-width="2" stroke-linecap="round" stroke-linejoin="round" d="
				M77.5-191.5l3,4"/>
			<path id="Line-5_1_" fill="none" stroke="#FFFFFF" stroke-width="2" stroke-linecap="round" d="M63.5-188.5v12"/>
			<path id="Line-4_1_" fill="none" stroke="#FFFFFF" stroke-width="2" stroke-linecap="round" d="M80.5-187.5h12"/>
			<path id="Line-6_1_" fill="none" stroke="#FFFFFF" stroke-width="2" stroke-linecap="round" d="M63.5-176.5l3.5,6"/>
			<path id="Line-8_1_" fill="none" stroke="#FFFFFF" stroke-width="2" stroke-linecap="round" d="M67-144.5l-3.5,5"/>
			<path id="Line-9_1_" fill="none" stroke="#FFFFFF" stroke-width="2" stroke-linecap="round" d="M63.5-139.5v14"/>
			<path id="Line-7_1_" fill="none" stroke="#FFFFFF" stroke-width="2" stroke-linecap="round" d="M67-170.5v26"/>
			<path id="Line-10_1_" fill="none" stroke="#FFFFFF" stroke-width="2" stroke-linecap="round" d="M63.5-125.5l13,2.5"/>
			<path id="Line-11_1_" fill="none" stroke="#FFFFFF" stroke-width="2" stroke-linecap="round" d="M76.5-123l4-4.5"/>
			<path id="Line-12_1_" fill="none" stroke="#FFFFFF" stroke-width="2" stroke-linecap="round" d="M80.5-127.5h12"/>
		</g>
		<circle id="Oval" fill="none" stroke="#FFFFFF" stroke-width="2" cx="-24.5" cy="-156.5" r="19.5"/>
		<path id="Line-16" fill="none" stroke="#FFFFFF" stroke-width="2" stroke-linecap="round" d="M-27.5-118.5l3,4"/>
		<path id="Line-17" fill="none" stroke="#FFFFFF" stroke-width="2" stroke-linecap="round" d="M-24.5-114.5l3-4"/>
		<path id="Line-14" fill="none" stroke="#FFFFFF" stroke-width="2" stroke-linecap="round" d="M-33.5-118.5h18"/>
	</g>
	<g>
		<circle id="Oval_1_" fill="#FFFFFF" cx="-8" cy="-170" r="21"/>
		<text transform="matrix(1 0 0 1 -15.3809 -161)" font-family="'ArialMT'" font-size="26">3</text>
	</g>
</g>
</svg>
