<?xml version="1.0" encoding="utf-8"?>
<!-- Generator: Adobe Illustrator 15.0.2, SVG Export Plug-In . SVG Version: 6.00 Build 0)  -->
<!DOCTYPE svg PUBLIC "-//W3C//DTD SVG 1.1//EN" "http://www.w3.org/Graphics/SVG/1.1/DTD/svg11.dtd">
<svg version="1.1" id="Layer_1" xmlns="http://www.w3.org/2000/svg" xmlns:xlink="http://www.w3.org/1999/xlink" x="0px" y="0px"
	 width="77px" height="80px" viewBox="0 0 77 80" enable-background="new 0 0 77 80" xml:space="preserve">
<g id="toolhead-2" transform="translate(261.000000, 25.000000)">
	<g id="toolhead">
		<g id="Group" transform="translate(10.000000, 6.000000)">
			<path id="Line" fill="none" stroke="#FFFFFF" stroke-width="2" stroke-linecap="round" d="M-260.5-21.5l5.5-3"/>
			<path id="Line-2" fill="none" stroke="#FFFFFF" stroke-width="2" stroke-linecap="round" d="M-255-24.5h8.5"/>
			<path id="Line-3" fill="none" stroke="#FFFFFF" stroke-width="2" stroke-linecap="round" stroke-linejoin="round" d="
				M-246.5-24.5l3,4"/>
			<path id="Line-5" fill="none" stroke="#FFFFFF" stroke-width="2" stroke-linecap="round" d="M-260.5-21.5v12"/>
			<path id="Line-4" fill="none" stroke="#FFFFFF" stroke-width="2" stroke-linecap="round" d="M-243.5-20.5h12"/>
			<path id="Line-6" fill="none" stroke="#FFFFFF" stroke-width="2" stroke-linecap="round" d="M-260.5-9.5l3.5,6"/>
			<path id="Line-8" fill="none" stroke="#FFFFFF" stroke-width="2" stroke-linecap="round" d="M-257,22.5l-3.5,5"/>
			<path id="Line-9" fill="none" stroke="#FFFFFF" stroke-width="2" stroke-linecap="round" d="M-260.5,27.5v14"/>
			<path id="Line-7" fill="none" stroke="#FFFFFF" stroke-width="2" stroke-linecap="round" d="M-257-3.5v26"/>
			<path id="Line-10" fill="none" stroke="#FFFFFF" stroke-width="2" stroke-linecap="round" d="M-260.5,41.5l13,2.5"/>
			<path id="Line-11" fill="none" stroke="#FFFFFF" stroke-width="2" stroke-linecap="round" d="M-247.5,44l4-4.5"/>
			<path id="Line-12" fill="none" stroke="#FFFFFF" stroke-width="2" stroke-linecap="round" d="M-243.5,39.5h12"/>
		</g>
		
			<g id="Group_1_" transform="translate(52.000000, 40.500000) scale(-1, 1) translate(-52.000000, -40.500000) translate(37.000000, 6.000000)">
			<path id="Line_1_" fill="none" stroke="#FFFFFF" stroke-width="2" stroke-linecap="round" d="M261.5-21.5l5.5-3"/>
			<path id="Line-2_1_" fill="none" stroke="#FFFFFF" stroke-width="2" stroke-linecap="round" d="M267-24.5h8.5"/>
			<path id="Line-3_1_" fill="none" stroke="#FFFFFF" stroke-width="2" stroke-linecap="round" stroke-linejoin="round" d="
				M275.5-24.5l3,4"/>
			<path id="Line-5_1_" fill="none" stroke="#FFFFFF" stroke-width="2" stroke-linecap="round" d="M261.5-21.5v12"/>
			<path id="Line-4_1_" fill="none" stroke="#FFFFFF" stroke-width="2" stroke-linecap="round" d="M278.5-20.5h12"/>
			<path id="Line-6_1_" fill="none" stroke="#FFFFFF" stroke-width="2" stroke-linecap="round" d="M261.5-9.5l3.5,6"/>
			<path id="Line-8_1_" fill="none" stroke="#FFFFFF" stroke-width="2" stroke-linecap="round" d="M265,22.5l-3.5,5"/>
			<path id="Line-9_1_" fill="none" stroke="#FFFFFF" stroke-width="2" stroke-linecap="round" d="M261.5,27.5v14"/>
			<path id="Line-7_1_" fill="none" stroke="#FFFFFF" stroke-width="2" stroke-linecap="round" d="M265-3.5v26"/>
			<path id="Line-10_1_" fill="none" stroke="#FFFFFF" stroke-width="2" stroke-linecap="round" d="M261.5,41.5l13,2.5"/>
			<path id="Line-11_1_" fill="none" stroke="#FFFFFF" stroke-width="2" stroke-linecap="round" d="M274.5,44l4-4.5"/>
			<path id="Line-12_1_" fill="none" stroke="#FFFFFF" stroke-width="2" stroke-linecap="round" d="M278.5,39.5h12"/>
		</g>
		<circle id="Oval" fill="none" stroke="#FFFFFF" stroke-width="2" cx="-222.5" cy="10.5" r="19.5"/>
		<path id="Line-16" fill="none" stroke="#FFFFFF" stroke-width="2" stroke-linecap="round" d="M-225.5,48.5l3,4"/>
		<path id="Line-17" fill="none" stroke="#FFFFFF" stroke-width="2" stroke-linecap="round" d="M-222.5,52.5l3-4"/>
		<path id="Line-14" fill="none" stroke="#FFFFFF" stroke-width="2" stroke-linecap="round" d="M-231.5,48.5h18"/>
	</g>
	<g>
		<circle id="Oval_1_" fill="#FFFFFF" cx="-206" cy="-3" r="21"/>
		<text transform="matrix(1 0 0 1 -213.3809 6)" font-family="'ArialMT'" font-size="26">2</text>
	</g>
</g>
</svg>
