<?xml version="1.0" encoding="utf-8"?>
<!-- Generator: Adobe Illustrator 15.0.2, SVG Export Plug-In . SVG Version: 6.00 Build 0)  -->
<!DOCTYPE svg PUBLIC "-//W3C//DTD SVG 1.1//EN" "http://www.w3.org/Graphics/SVG/1.1/DTD/svg11.dtd">
<svg version="1.1" id="Layer_1" xmlns="http://www.w3.org/2000/svg" xmlns:xlink="http://www.w3.org/1999/xlink" x="0px" y="0px"
	 width="69px" height="62px" viewBox="0 0 69 62" enable-background="new 0 0 69 62" xml:space="preserve">
<g id="Bed">
	<path id="Path" fill="none" stroke="#FFFFFF" stroke-linecap="round" d="M9.588,52.412l3.294-7.688"/>
	<path id="Path_1_" fill="none" stroke="#FFFFFF" stroke-linecap="round" d="M17.274,52.412l3.294-7.688"/>
	<path id="Path_2_" fill="none" stroke="#FFFFFF" stroke-linecap="round" d="M24.961,52.412l3.294-7.688"/>
	<path id="Path_3_" fill="none" stroke="#FFFFFF" stroke-linecap="round" d="M32.647,52.412l3.294-7.688"/>
	<path id="Path_4_" fill="none" stroke="#FFFFFF" stroke-linecap="round" d="M40.334,52.412l3.293-7.688"/>
	<path id="Path_5_" fill="none" stroke="#FFFFFF" stroke-linecap="round" d="M48.02,52.412l3.295-7.688"/>
	<path id="Path_6_" fill="none" stroke="#FFFFFF" stroke-linecap="round" d="M55.706,52.412L59,44.727"/>
	<path id="Path_7_" fill="#FFFFFF" stroke="#FFFFFF" stroke-width="3" stroke-linecap="round" d="M66.688,47.953
		c0-1.768-1.438-3.229-3.186-3.229H6.185C4.44,44.727,3,46.186,3,47.953v1.23c0,1.768,1.44,3.229,3.185,3.229h57.317
		c1.744,0,3.186-1.461,3.186-3.229V47.953L66.688,47.953z"/>
	<polyline id="Path_8_" fill="none" stroke="#FFFFFF" stroke-width="3" stroke-linejoin="round" points="8.49,54.607 8.49,59 
		15.079,59 15.079,54.607 	"/>
	<polyline id="Path_9_" fill="none" stroke="#FFFFFF" stroke-width="3" stroke-linejoin="round" points="54.607,54.607 54.607,59 
		61.195,59 61.195,54.607 	"/>
</g>
<g id="Extruder">
	<g id="Layer_right">
		<path fill="none" stroke="#FFFFFF" stroke-width="1.7437" stroke-linejoin="round" stroke-miterlimit="10" d="M29.632,24.402
			h4.246c0.617,0,1.159,0.541,1.159,1.158c0,0.617-0.542,1.157-1.159,1.157h-9.65"/>
		
			<polyline fill="none" stroke="#FFFFFF" stroke-width="1.7451" stroke-linecap="round" stroke-linejoin="round" stroke-miterlimit="10" points="
			23.843,29.034 29.247,29.034 25.773,33.279 23.573,33.279 21.908,31.251 		"/>
		<path fill="none" stroke="#FFFFFF" stroke-width="1.7437" stroke-linejoin="round" stroke-miterlimit="10" d="M32.72,24.402
			V12.629c0-0.734-0.618-1.351-1.351-1.351H21.14"/>
		<g>
			<path fill="none" stroke="#FFFFFF" stroke-width="1.7437" stroke-linejoin="round" stroke-miterlimit="10" d="M24.585,10.122
				c0,0,0-0.541,0-1.16c0-0.617,0.694-1.158,1.544-1.158h2.701c0.85,0,1.545-0.694,1.545-1.543V3.173"/>
		</g>
		
			<line fill="none" stroke="#FFFFFF" stroke-width="1.7437" stroke-linecap="round" stroke-linejoin="round" stroke-miterlimit="10" x1="32.72" y1="24.402" x2="28.474" y2="24.402"/>
	</g>
	<g id="Layer_left">
		<path fill="none" stroke="#FFFFFF" stroke-width="1.7437" stroke-linejoin="round" stroke-miterlimit="10" d="M25.108,26.717
			h-9.65c-0.618,0-1.158-0.54-1.158-1.157c0-0.617,0.54-1.158,1.158-1.158h4.246"/>
		
			<polyline fill="none" stroke="#FFFFFF" stroke-width="1.7451" stroke-linecap="round" stroke-linejoin="round" stroke-miterlimit="10" points="
			27.391,31.293 25.763,33.279 23.563,33.279 20.089,29.034 25.493,29.034 		"/>
		<path fill="none" stroke="#FFFFFF" stroke-width="1.7437" stroke-linejoin="round" stroke-miterlimit="10" d="M28.195,11.278
			H17.967c-0.734,0-1.352,0.617-1.352,1.351v11.773"/>
		
			<line fill="none" stroke="#FFFFFF" stroke-width="1.7437" stroke-linecap="round" stroke-linejoin="round" stroke-miterlimit="10" x1="20.862" y1="24.402" x2="16.616" y2="24.402"/>
	</g>
</g>
<path id="Arrow_1_" fill="none" stroke="#FFFFFF" stroke-width="2.4221" stroke-linejoin="round" d="M65.188,20.783L50.991,35.131
	L36.645,20.932l5.68-5.738l4.598,4.549V3h8.073l-0.001,16.609l4.458-4.504L65.188,20.783z"/>
</svg>
